#include "songs.h"

void fureliseMelody(int buzzer) {
  int melody[] = {

  // Fur Elise - Ludwig van Beethovem
  // Score available at https://musescore.com/user/28149610/scores/5281944

  //starts from 1 ending on 9
  NOTE_E5, 16, NOTE_DS5, 16, //1
  NOTE_E5, 16, NOTE_DS5, 16, NOTE_E5, 16, NOTE_B4, 16, NOTE_D5, 16, NOTE_C5, 16,
  NOTE_A4, -8, NOTE_C4, 16, NOTE_E4, 16, NOTE_A4, 16,
  NOTE_B4, -8, NOTE_E4, 16, NOTE_GS4, 16, NOTE_B4, 16,
  NOTE_C5, 8,  REST, 16, NOTE_E4, 16, NOTE_E5, 16,  NOTE_DS5, 16,
  
  NOTE_E5, 16, NOTE_DS5, 16, NOTE_E5, 16, NOTE_B4, 16, NOTE_D5, 16, NOTE_C5, 16,//6
  NOTE_A4, -8, NOTE_C4, 16, NOTE_E4, 16, NOTE_A4, 16, 
  NOTE_B4, -8, NOTE_E4, 16, NOTE_C5, 16, NOTE_B4, 16, 
  NOTE_A4 , 4, REST, 8, //9 - 1st ending

  //repaets from 1 ending on 10
  NOTE_E5, 16, NOTE_DS5, 16, //1
  NOTE_E5, 16, NOTE_DS5, 16, NOTE_E5, 16, NOTE_B4, 16, NOTE_D5, 16, NOTE_C5, 16,
  NOTE_A4, -8, NOTE_C4, 16, NOTE_E4, 16, NOTE_A4, 16,
  NOTE_B4, -8, NOTE_E4, 16, NOTE_GS4, 16, NOTE_B4, 16,
  NOTE_C5, 8,  REST, 16, NOTE_E4, 16, NOTE_E5, 16,  NOTE_DS5, 16,
  
  NOTE_E5, 16, NOTE_DS5, 16, NOTE_E5, 16, NOTE_B4, 16, NOTE_D5, 16, NOTE_C5, 16,//6
  NOTE_A4, -8, NOTE_C4, 16, NOTE_E4, 16, NOTE_A4, 16, 
  NOTE_B4, -8, NOTE_E4, 16, NOTE_C5, 16, NOTE_B4, 16, 
  NOTE_A4, 8, REST, 16, NOTE_B4, 16, NOTE_C5, 16, NOTE_D5, 16, //10 - 2nd ending
  //continues from 11
  NOTE_E5, -8, NOTE_G4, 16, NOTE_F5, 16, NOTE_E5, 16, 
  NOTE_D5, -8, NOTE_F4, 16, NOTE_E5, 16, NOTE_D5, 16, //12
  
  NOTE_C5, -8, NOTE_E4, 16, NOTE_D5, 16, NOTE_C5, 16, //13
  NOTE_B4, 8, REST, 16, NOTE_E4, 16, NOTE_E5, 16, REST, 16,
  REST, 16, NOTE_E5, 16, NOTE_E6, 16, REST, 16, REST, 16, NOTE_DS5, 16,
  NOTE_E5, 16, REST, 16, REST, 16, NOTE_DS5, 16, NOTE_E5, 16, NOTE_DS5, 16,
  NOTE_E5, 16, NOTE_DS5, 16, NOTE_E5, 16, NOTE_B4, 16, NOTE_D5, 16, NOTE_C5, 16,
  NOTE_A4, 8, REST, 16, NOTE_C4, 16, NOTE_E4, 16, NOTE_A4, 16,
  
  NOTE_B4, 8, REST, 16, NOTE_E4, 16, NOTE_GS4, 16, NOTE_B4, 16, //19
  NOTE_C5, 8, REST, 16, NOTE_E4, 16, NOTE_E5, 16,  NOTE_DS5, 16,
  NOTE_E5, 16, NOTE_DS5, 16, NOTE_E5, 16, NOTE_B4, 16, NOTE_D5, 16, NOTE_C5, 16,
  NOTE_A4, 8, REST, 16, NOTE_C4, 16, NOTE_E4, 16, NOTE_A4, 16,
  NOTE_B4, 8, REST, 16, NOTE_E4, 16, NOTE_C5, 16, NOTE_B4, 16,
  NOTE_A4, 8, REST, 16, NOTE_B4, 16, NOTE_C5, 16, NOTE_D5, 16, //24 (1st ending)
  
  //repeats from 11
  NOTE_E5, -8, NOTE_G4, 16, NOTE_F5, 16, NOTE_E5, 16, 
  NOTE_D5, -8, NOTE_F4, 16, NOTE_E5, 16, NOTE_D5, 16, //12
  
  NOTE_C5, -8, NOTE_E4, 16, NOTE_D5, 16, NOTE_C5, 16, //13
  NOTE_B4, 8, REST, 16, NOTE_E4, 16, NOTE_E5, 16, REST, 16,
  REST, 16, NOTE_E5, 16, NOTE_E6, 16, REST, 16, REST, 16, NOTE_DS5, 16,
  NOTE_E5, 16, REST, 16, REST, 16, NOTE_DS5, 16, NOTE_E5, 16, NOTE_DS5, 16,
  NOTE_E5, 16, NOTE_DS5, 16, NOTE_E5, 16, NOTE_B4, 16, NOTE_D5, 16, NOTE_C5, 16,
  NOTE_A4, 8, REST, 16, NOTE_C4, 16, NOTE_E4, 16, NOTE_A4, 16,
  
  NOTE_B4, 8, REST, 16, NOTE_E4, 16, NOTE_GS4, 16, NOTE_B4, 16, //19
  NOTE_C5, 8, REST, 16, NOTE_E4, 16, NOTE_E5, 16,  NOTE_DS5, 16,
  NOTE_E5, 16, NOTE_DS5, 16, NOTE_E5, 16, NOTE_B4, 16, NOTE_D5, 16, NOTE_C5, 16,
  NOTE_A4, 8, REST, 16, NOTE_C4, 16, NOTE_E4, 16, NOTE_A4, 16,
  NOTE_B4, 8, REST, 16, NOTE_E4, 16, NOTE_C5, 16, NOTE_B4, 16,
  NOTE_A4, 8, REST, 16, NOTE_C5, 16, NOTE_C5, 16, NOTE_C5, 16, //25 - 2nd ending

  //continues from 26
  NOTE_C5 , 4, NOTE_F5, -16, NOTE_E5, 32, //26
  NOTE_E5, 8, NOTE_D5, 8, NOTE_AS5, -16, NOTE_A5, 32,
  NOTE_A5, 16, NOTE_G5, 16, NOTE_F5, 16, NOTE_E5, 16, NOTE_D5, 16, NOTE_C5, 16,
  NOTE_AS4, 8, NOTE_A4, 8, NOTE_A4, 32, NOTE_G4, 32, NOTE_A4, 32, NOTE_B4, 32,
  NOTE_C5 , 4, NOTE_D5, 16, NOTE_DS5, 16,
  NOTE_E5, -8, NOTE_E5, 16, NOTE_F5, 16, NOTE_A4, 16,
  NOTE_C5 , 4,  NOTE_D5, -16, NOTE_B4, 32,
  
  
  NOTE_C5, 32, NOTE_G5, 32, NOTE_G4, 32, NOTE_G5, 32, NOTE_A4, 32, NOTE_G5, 32, NOTE_B4, 32, NOTE_G5, 32, NOTE_C5, 32, NOTE_G5, 32, NOTE_D5, 32, NOTE_G5, 32, //33
  NOTE_E5, 32, NOTE_G5, 32, NOTE_C6, 32, NOTE_B5, 32, NOTE_A5, 32, NOTE_G5, 32, NOTE_F5, 32, NOTE_E5, 32, NOTE_D5, 32, NOTE_G5, 32, NOTE_F5, 32, NOTE_D5, 32,
  NOTE_C5, 32, NOTE_G5, 32, NOTE_G4, 32, NOTE_G5, 32, NOTE_A4, 32, NOTE_G5, 32, NOTE_B4, 32, NOTE_G5, 32, NOTE_C5, 32, NOTE_G5, 32, NOTE_D5, 32, NOTE_G5, 32,

  NOTE_E5, 32, NOTE_G5, 32, NOTE_C6, 32, NOTE_B5, 32, NOTE_A5, 32, NOTE_G5, 32, NOTE_F5, 32, NOTE_E5, 32, NOTE_D5, 32, NOTE_G5, 32, NOTE_F5, 32, NOTE_D5, 32, //36
  NOTE_E5, 32, NOTE_F5, 32, NOTE_E5, 32, NOTE_DS5, 32, NOTE_E5, 32, NOTE_B4, 32, NOTE_E5, 32, NOTE_DS5, 32, NOTE_E5, 32, NOTE_B4, 32, NOTE_E5, 32, NOTE_DS5, 32,
  NOTE_E5, -8, NOTE_B4, 16, NOTE_E5, 16, NOTE_DS5, 16,
  NOTE_E5, -8, NOTE_B4, 16, NOTE_E5, 16, REST, 16,

  REST, 16, NOTE_DS5, 16, NOTE_E5, 16, REST, 16, REST, 16, NOTE_DS5, 16, //40
  NOTE_E5, 16, NOTE_DS5, 16, NOTE_E5, 16, NOTE_B4, 16, NOTE_D5, 16, NOTE_C5, 16,
  NOTE_A4, 8, REST, 16, NOTE_C4, 16, NOTE_E4, 16, NOTE_A4, 16,
  NOTE_B4, 8, REST, 16, NOTE_E4, 16, NOTE_GS4, 16, NOTE_B4, 16,
  NOTE_C5, 8, REST, 16, NOTE_E4, 16, NOTE_E5, 16, NOTE_DS5, 16,
  NOTE_E5, 16, NOTE_DS5, 16, NOTE_E5, 16, NOTE_B4, 16, NOTE_D5, 16, NOTE_C5, 16,

  NOTE_A4, 8, REST, 16, NOTE_C4, 16, NOTE_E4, 16, NOTE_A4, 16, //46
  NOTE_B4, 8, REST, 16, NOTE_E4, 16, NOTE_C5, 16, NOTE_B4, 16,
  NOTE_A4, 8, REST, 16, NOTE_B4, 16, NOTE_C5, 16, NOTE_D5, 16,
  NOTE_E5, -8, NOTE_G4, 16, NOTE_F5, 16, NOTE_E5, 16,
  NOTE_D5, -8, NOTE_F4, 16, NOTE_E5, 16, NOTE_D5, 16,
  NOTE_C5, -8, NOTE_E4, 16, NOTE_D5, 16, NOTE_C5, 16,
  NOTE_B4, 8, REST, 16, NOTE_E4, 16, NOTE_E5, 16, REST, 16,
  REST, 16, NOTE_E5, 16, NOTE_E6, 16, REST, 16, REST, 16, NOTE_DS5, 16,

  NOTE_E5, 16, REST, 16, REST, 16, NOTE_DS5, 16, NOTE_E5, 16, NOTE_D5, 16, //54
  NOTE_E5, 16, NOTE_DS5, 16, NOTE_E5, 16, NOTE_B4, 16, NOTE_D5, 16, NOTE_C5, 16,
  NOTE_A4, 8, REST, 16, NOTE_C4, 16, NOTE_E4, 16, NOTE_A4, 16,
  NOTE_B4, 8, REST, 16, NOTE_E4, 16, NOTE_GS4, 16, NOTE_B4, 16,
  NOTE_C5, 8, REST, 16, NOTE_E4, 16, NOTE_E5, 16, NOTE_DS5, 16,
  NOTE_E5, 16, NOTE_DS5, 16, NOTE_E5, 16, NOTE_B4, 16, NOTE_D5, 16, NOTE_C5, 16,
  
  NOTE_A4, 8, REST, 16, NOTE_C4, 16, NOTE_E4, 16, NOTE_A4, 16, //60
  NOTE_B4, 8, REST, 16, NOTE_E4, 16, NOTE_C5, 16, NOTE_B4, 16,
  NOTE_A4, 8, REST, 16, REST, 16, REST, 8, 
  NOTE_CS5 , -4, 
  NOTE_D5 , 4, NOTE_E5, 16, NOTE_F5, 16,
  NOTE_F5 , 4, NOTE_F5, 8, 
  NOTE_E5 , -4,
  NOTE_D5 , 4, NOTE_C5, 16, NOTE_B4, 16,
  NOTE_A4 , 4, NOTE_A4, 8,
  NOTE_A4, 8, NOTE_C5, 8, NOTE_B4, 8,
  NOTE_A4 , -4,
  NOTE_CS5 , -4,

  NOTE_D5 , 4, NOTE_E5, 16, NOTE_F5, 16, //72
  NOTE_F5 , 4, NOTE_F5, 8,
  NOTE_F5 , -4,
  NOTE_DS5 , 4, NOTE_D5, 16, NOTE_C5, 16,
  NOTE_AS4 , 4, NOTE_A4, 8,
  NOTE_GS4 , 4, NOTE_G4, 8,
  NOTE_A4 , -4,
  NOTE_B4 , 4, REST, 8,
  NOTE_A3, -32, NOTE_C4, -32, NOTE_E4, -32, NOTE_A4, -32, NOTE_C5, -32, NOTE_E5, -32, NOTE_D5, -32, NOTE_C5, -32, NOTE_B4, -32,

  NOTE_A4, -32, NOTE_C5, -32, NOTE_E5, -32, NOTE_A5, -32, NOTE_C6, -32, NOTE_E6, -32, NOTE_D6, -32, NOTE_C6, -32, NOTE_B5, -32, //80
  NOTE_A4, -32, NOTE_C5, -32, NOTE_E5, -32, NOTE_A5, -32, NOTE_C6, -32, NOTE_E6, -32, NOTE_D6, -32, NOTE_C6, -32, NOTE_B5, -32,
  NOTE_AS5, -32, NOTE_A5, -32, NOTE_GS5, -32, NOTE_G5, -32, NOTE_FS5, -32, NOTE_F5, -32, NOTE_E5, -32, NOTE_DS5, -32, NOTE_D5, -32,

  NOTE_CS5, -32, NOTE_C5, -32, NOTE_B4, -32, NOTE_AS4, -32, NOTE_A4, -32, NOTE_GS4, -32, NOTE_G4, -32, NOTE_FS4, -32, NOTE_F4, -32, //84
  NOTE_E4, 16, NOTE_DS5, 16, NOTE_E5, 16, NOTE_B4, 16, NOTE_D5, 16, NOTE_C5, 16,
  NOTE_A4, -8, NOTE_C4, 16, NOTE_E4, 16, NOTE_A4, 16,
  NOTE_B4, -8, NOTE_E4, 16, NOTE_GS4, 16, NOTE_B4, 16,

  NOTE_C5, 8, REST, 16, NOTE_E4, 16, NOTE_E5, 16, NOTE_DS5, 16, //88
  NOTE_E5, 16, NOTE_DS5, 16, NOTE_E5, 16, NOTE_B4, 16, NOTE_D5, 16, NOTE_C5, 16, 
  NOTE_A4, -8, NOTE_C4, 16, NOTE_E4, 16, NOTE_A4, 16, 
  NOTE_B4, -8, NOTE_E4, 16, NOTE_C5, 16, NOTE_B4, 16, 
  NOTE_A4, -8, REST, -8,
  REST, -8, NOTE_G4, 16, NOTE_F5, 16, NOTE_E5, 16,
  NOTE_D5 , 4, REST, 8,
  REST, -8, NOTE_E4, 16, NOTE_D5, 16, NOTE_C5, 16,
  
  NOTE_B4, -8, NOTE_E4, 16, NOTE_E5, 8, //96
  NOTE_E5, 8, NOTE_E6, -8, NOTE_DS5, 16,
  NOTE_E5, 16, REST, 16, REST, 16, NOTE_DS5, 16, NOTE_E5, 16, NOTE_DS5, 16,
  NOTE_E5, 16, NOTE_DS5, 16, NOTE_E5, 16, NOTE_B4, 16, NOTE_D5, 16, NOTE_C5, 16,
  NOTE_A4, -8, NOTE_C4, 16, NOTE_E4, 16, NOTE_A4, 16,
  NOTE_B4, -8, NOTE_E4, 16, NOTE_GS4, 16, NOTE_B4, 16,

  NOTE_C5, 8, REST, 16, NOTE_E4, 16, NOTE_E5, 16, NOTE_DS5, 16, //102
  NOTE_E5, 16, NOTE_DS5, 16, NOTE_E5, 16, NOTE_B4, 16, NOTE_D5, 16, NOTE_C5, 16,
  NOTE_A4, -8, NOTE_C4, 16, NOTE_E4, 16, NOTE_A4, 16,
  NOTE_B4, -8, NOTE_E4, 16, NOTE_C5, 16, NOTE_B4, 16,
  NOTE_A4 , -4,
};
  Melody m(80,melody,sizeof(melody)/sizeof(*melody)/2);
  m.play(buzzer);

}

void superMarioMelody(int buzzer) {
  // notes of the moledy followed by the duration.
// a 4 means a quarter note, 8 an eighteenth , 16 sixteenth, so on
// !!negative numbers are used to represent dotted notes,
// so -4 means a dotted quarter note, that is, a quarter plus an eighteenth!!
int melody[] = {

  // Super Mario Bros theme
  // Score available at https://musescore.com/user/2123/scores/2145
  // Theme by Koji Kondo
  
  
  NOTE_E5,8, NOTE_E5,8, REST,8, NOTE_E5,8, REST,8, NOTE_C5,8, NOTE_E5,8, //1
  NOTE_G5,4, REST,4, NOTE_G4,8, REST,4, 
  NOTE_C5,-4, NOTE_G4,8, REST,4, NOTE_E4,-4, // 3
  NOTE_A4,4, NOTE_B4,4, NOTE_AS4,8, NOTE_A4,4,
  NOTE_G4,-8, NOTE_E5,-8, NOTE_G5,-8, NOTE_A5,4, NOTE_F5,8, NOTE_G5,8,
  REST,8, NOTE_E5,4,NOTE_C5,8, NOTE_D5,8, NOTE_B4,-4,
  NOTE_C5,-4, NOTE_G4,8, REST,4, NOTE_E4,-4, // repeats from 3
  NOTE_A4,4, NOTE_B4,4, NOTE_AS4,8, NOTE_A4,4,
  NOTE_G4,-8, NOTE_E5,-8, NOTE_G5,-8, NOTE_A5,4, NOTE_F5,8, NOTE_G5,8,
  REST,8, NOTE_E5,4,NOTE_C5,8, NOTE_D5,8, NOTE_B4,-4,

  
  REST,4, NOTE_G5,8, NOTE_FS5,8, NOTE_F5,8, NOTE_DS5,4, NOTE_E5,8,//7
  REST,8, NOTE_GS4,8, NOTE_A4,8, NOTE_C4,8, REST,8, NOTE_A4,8, NOTE_C5,8, NOTE_D5,8,
  REST,4, NOTE_DS5,4, REST,8, NOTE_D5,-4,
  NOTE_C5,2, REST,2,

  REST,4, NOTE_G5,8, NOTE_FS5,8, NOTE_F5,8, NOTE_DS5,4, NOTE_E5,8,//repeats from 7
  REST,8, NOTE_GS4,8, NOTE_A4,8, NOTE_C4,8, REST,8, NOTE_A4,8, NOTE_C5,8, NOTE_D5,8,
  REST,4, NOTE_DS5,4, REST,8, NOTE_D5,-4,
  NOTE_C5,2, REST,2,

  NOTE_C5,8, NOTE_C5,4, NOTE_C5,8, REST,8, NOTE_C5,8, NOTE_D5,4,//11
  NOTE_E5,8, NOTE_C5,4, NOTE_A4,8, NOTE_G4,2,

  NOTE_C5,8, NOTE_C5,4, NOTE_C5,8, REST,8, NOTE_C5,8, NOTE_D5,8, NOTE_E5,8,//13
  REST,1, 
  NOTE_C5,8, NOTE_C5,4, NOTE_C5,8, REST,8, NOTE_C5,8, NOTE_D5,4,
  NOTE_E5,8, NOTE_C5,4, NOTE_A4,8, NOTE_G4,2,
  NOTE_E5,8, NOTE_E5,8, REST,8, NOTE_E5,8, REST,8, NOTE_C5,8, NOTE_E5,4,
  NOTE_G5,4, REST,4, NOTE_G4,4, REST,4, 
  NOTE_C5,-4, NOTE_G4,8, REST,4, NOTE_E4,-4, // 19
  
  NOTE_A4,4, NOTE_B4,4, NOTE_AS4,8, NOTE_A4,4,
  NOTE_G4,-8, NOTE_E5,-8, NOTE_G5,-8, NOTE_A5,4, NOTE_F5,8, NOTE_G5,8,
  REST,8, NOTE_E5,4, NOTE_C5,8, NOTE_D5,8, NOTE_B4,-4,

  NOTE_C5,-4, NOTE_G4,8, REST,4, NOTE_E4,-4, // repeats from 19
  NOTE_A4,4, NOTE_B4,4, NOTE_AS4,8, NOTE_A4,4,
  NOTE_G4,-8, NOTE_E5,-8, NOTE_G5,-8, NOTE_A5,4, NOTE_F5,8, NOTE_G5,8,
  REST,8, NOTE_E5,4, NOTE_C5,8, NOTE_D5,8, NOTE_B4,-4,

  NOTE_E5,8, NOTE_C5,4, NOTE_G4,8, REST,4, NOTE_GS4,4,//23
  NOTE_A4,8, NOTE_F5,4, NOTE_F5,8, NOTE_A4,2,
  NOTE_D5,-8, NOTE_A5,-8, NOTE_A5,-8, NOTE_A5,-8, NOTE_G5,-8, NOTE_F5,-8,
  
  NOTE_E5,8, NOTE_C5,4, NOTE_A4,8, NOTE_G4,2, //26
  NOTE_E5,8, NOTE_C5,4, NOTE_G4,8, REST,4, NOTE_GS4,4,
  NOTE_A4,8, NOTE_F5,4, NOTE_F5,8, NOTE_A4,2,
  NOTE_B4,8, NOTE_F5,4, NOTE_F5,8, NOTE_F5,-8, NOTE_E5,-8, NOTE_D5,-8,
  NOTE_C5,8, NOTE_E4,4, NOTE_E4,8, NOTE_C4,2,

  NOTE_E5,8, NOTE_C5,4, NOTE_G4,8, REST,4, NOTE_GS4,4,//repeats from 23
  NOTE_A4,8, NOTE_F5,4, NOTE_F5,8, NOTE_A4,2,
  NOTE_D5,-8, NOTE_A5,-8, NOTE_A5,-8, NOTE_A5,-8, NOTE_G5,-8, NOTE_F5,-8,
  
  NOTE_E5,8, NOTE_C5,4, NOTE_A4,8, NOTE_G4,2, //26
  NOTE_E5,8, NOTE_C5,4, NOTE_G4,8, REST,4, NOTE_GS4,4,
  NOTE_A4,8, NOTE_F5,4, NOTE_F5,8, NOTE_A4,2,
  NOTE_B4,8, NOTE_F5,4, NOTE_F5,8, NOTE_F5,-8, NOTE_E5,-8, NOTE_D5,-8,
  NOTE_C5,8, NOTE_E4,4, NOTE_E4,8, NOTE_C4,2,
  NOTE_C5,8, NOTE_C5,4, NOTE_C5,8, REST,8, NOTE_C5,8, NOTE_D5,8, NOTE_E5,8,
  REST,1,

  NOTE_C5,8, NOTE_C5,4, NOTE_C5,8, REST,8, NOTE_C5,8, NOTE_D5,4, //33
  NOTE_E5,8, NOTE_C5,4, NOTE_A4,8, NOTE_G4,2,
  NOTE_E5,8, NOTE_E5,8, REST,8, NOTE_E5,8, REST,8, NOTE_C5,8, NOTE_E5,4,
  NOTE_G5,4, REST,4, NOTE_G4,4, REST,4, 
  NOTE_E5,8, NOTE_C5,4, NOTE_G4,8, REST,4, NOTE_GS4,4,
  NOTE_A4,8, NOTE_F5,4, NOTE_F5,8, NOTE_A4,2,
  NOTE_D5,-8, NOTE_A5,-8, NOTE_A5,-8, NOTE_A5,-8, NOTE_G5,-8, NOTE_F5,-8,
  
  NOTE_E5,8, NOTE_C5,4, NOTE_A4,8, NOTE_G4,2, //40
  NOTE_E5,8, NOTE_C5,4, NOTE_G4,8, REST,4, NOTE_GS4,4,
  NOTE_A4,8, NOTE_F5,4, NOTE_F5,8, NOTE_A4,2,
  NOTE_B4,8, NOTE_F5,4, NOTE_F5,8, NOTE_F5,-8, NOTE_E5,-8, NOTE_D5,-8,
  NOTE_C5,8, NOTE_E4,4, NOTE_E4,8, NOTE_C4,2,
  
  //game over sound
  NOTE_C5,-4, NOTE_G4,-4, NOTE_E4,4, //45
  NOTE_A4,-8, NOTE_B4,-8, NOTE_A4,-8, NOTE_GS4,-8, NOTE_AS4,-8, NOTE_GS4,-8,
  NOTE_G4,8, NOTE_D4,8, NOTE_E4,-2,  

};
  Melody m(200,melody,sizeof(melody)/sizeof(*melody)/2);
  m.play(buzzer);

}

void gameOfThroneMelody(int buzzer) {
  int melody[] = {

  // Game of Thrones
  // Score available at https://musescore.com/user/8407786/scores/2156716

  NOTE_G4,8, NOTE_C4,8, NOTE_DS4,16, NOTE_F4,16, NOTE_G4,8, NOTE_C4,8, NOTE_DS4,16, NOTE_F4,16, //1
  NOTE_G4,8, NOTE_C4,8, NOTE_DS4,16, NOTE_F4,16, NOTE_G4,8, NOTE_C4,8, NOTE_DS4,16, NOTE_F4,16,
  NOTE_G4,8, NOTE_C4,8, NOTE_E4,16, NOTE_F4,16, NOTE_G4,8, NOTE_C4,8, NOTE_E4,16, NOTE_F4,16,
  NOTE_G4,8, NOTE_C4,8, NOTE_E4,16, NOTE_F4,16, NOTE_G4,8, NOTE_C4,8, NOTE_E4,16, NOTE_F4,16,
  NOTE_G4,-4, NOTE_C4,-4,//5

  NOTE_DS4,16, NOTE_F4,16, NOTE_G4,4, NOTE_C4,4, NOTE_DS4,16, NOTE_F4,16, //6
  NOTE_D4,-1, //7 and 8
  NOTE_F4,-4, NOTE_AS3,-4,
  NOTE_DS4,16, NOTE_D4,16, NOTE_F4,4, NOTE_AS3,-4,
  NOTE_DS4,16, NOTE_D4,16, NOTE_C4,-1, //11 and 12

  //repeats from 5
  NOTE_G4,-4, NOTE_C4,-4,//5

  NOTE_DS4,16, NOTE_F4,16, NOTE_G4,4, NOTE_C4,4, NOTE_DS4,16, NOTE_F4,16, //6
  NOTE_D4,-1, //7 and 8
  NOTE_F4,-4, NOTE_AS3,-4,
  NOTE_DS4,16, NOTE_D4,16, NOTE_F4,4, NOTE_AS3,-4,
  NOTE_DS4,16, NOTE_D4,16, NOTE_C4,-1, //11 and 12
  NOTE_G4,-4, NOTE_C4,-4,
  NOTE_DS4,16, NOTE_F4,16, NOTE_G4,4,  NOTE_C4,4, NOTE_DS4,16, NOTE_F4,16,

  NOTE_D4,-2,//15
  NOTE_F4,-4, NOTE_AS3,-4,
  NOTE_D4,-8, NOTE_DS4,-8, NOTE_D4,-8, NOTE_AS3,-8,
  NOTE_C4,-1,
  NOTE_C5,-2,
  NOTE_AS4,-2,
  NOTE_C4,-2,
  NOTE_G4,-2,
  NOTE_DS4,-2,
  NOTE_DS4,-4, NOTE_F4,-4, 
  NOTE_G4,-1,
  
  NOTE_C5,-2,//28
  NOTE_AS4,-2,
  NOTE_C4,-2,
  NOTE_G4,-2, 
  NOTE_DS4,-2,
  NOTE_DS4,-4, NOTE_D4,-4,
  NOTE_C5,8, NOTE_G4,8, NOTE_GS4,16, NOTE_AS4,16, NOTE_C5,8, NOTE_G4,8, NOTE_GS4,16, NOTE_AS4,16,
  NOTE_C5,8, NOTE_G4,8, NOTE_GS4,16, NOTE_AS4,16, NOTE_C5,8, NOTE_G4,8, NOTE_GS4,16, NOTE_AS4,16,
  
  REST,4, NOTE_GS5,16, NOTE_AS5,16, NOTE_C6,8, NOTE_G5,8, NOTE_GS5,16, NOTE_AS5,16,
  NOTE_C6,8, NOTE_G5,16, NOTE_GS5,16, NOTE_AS5,16, NOTE_C6,8, NOTE_G5,8, NOTE_GS5,16, NOTE_AS5,16,  
};
  Melody m(85,melody,sizeof(melody)/sizeof(*melody)/2);
  m.play(buzzer);
}

void nokiaMelody(int buzzer) {
  int melody[] = {

  // Nokia Ringtone 
  // Score available at https://musescore.com/user/29944637/scores/5266155
  
  NOTE_E5, 8, NOTE_D5, 8, NOTE_FS4, 4, NOTE_GS4, 4, 
  NOTE_CS5, 8, NOTE_B4, 8, NOTE_D4, 4, NOTE_E4, 4, 
  NOTE_B4, 8, NOTE_A4, 8, NOTE_CS4, 4, NOTE_E4, 4,
  NOTE_A4, 2, 
};
  Melody m(180,melody,sizeof(melody)/sizeof(*melody)/2);
  m.play(buzzer);
}

void doomMelody(int buzzer) {
  int melody[] = {

  // At Doom's Gate (E1M1)
  // Score available at https://musescore.com/pieridot/doom

  NOTE_E2, 8, NOTE_E2, 8, NOTE_E3, 8, NOTE_E2, 8, NOTE_E2, 8, NOTE_D3, 8, NOTE_E2, 8, NOTE_E2, 8, //1
  NOTE_C3, 8, NOTE_E2, 8, NOTE_E2, 8, NOTE_AS2, 8, NOTE_E2, 8, NOTE_E2, 8, NOTE_B2, 8, NOTE_C3, 8,
  NOTE_E2, 8, NOTE_E2, 8, NOTE_E3, 8, NOTE_E2, 8, NOTE_E2, 8, NOTE_D3, 8, NOTE_E2, 8, NOTE_E2, 8,
  NOTE_C3, 8, NOTE_E2, 8, NOTE_E2, 8, NOTE_AS2, -2,

  NOTE_E2, 8, NOTE_E2, 8, NOTE_E3, 8, NOTE_E2, 8, NOTE_E2, 8, NOTE_D3, 8, NOTE_E2, 8, NOTE_E2, 8, //5
  NOTE_C3, 8, NOTE_E2, 8, NOTE_E2, 8, NOTE_AS2, 8, NOTE_E2, 8, NOTE_E2, 8, NOTE_B2, 8, NOTE_C3, 8,
  NOTE_E2, 8, NOTE_E2, 8, NOTE_E3, 8, NOTE_E2, 8, NOTE_E2, 8, NOTE_D3, 8, NOTE_E2, 8, NOTE_E2, 8,
  NOTE_C3, 8, NOTE_E2, 8, NOTE_E2, 8, NOTE_AS2, -2,

  NOTE_E2, 8, NOTE_E2, 8, NOTE_E3, 8, NOTE_E2, 8, NOTE_E2, 8, NOTE_D3, 8, NOTE_E2, 8, NOTE_E2, 8, //9
  NOTE_C3, 8, NOTE_E2, 8, NOTE_E2, 8, NOTE_AS2, 8, NOTE_E2, 8, NOTE_E2, 8, NOTE_B2, 8, NOTE_C3, 8,
  NOTE_E2, 8, NOTE_E2, 8, NOTE_E3, 8, NOTE_E2, 8, NOTE_E2, 8, NOTE_D3, 8, NOTE_E2, 8, NOTE_E2, 8,
  NOTE_C3, 8, NOTE_E2, 8, NOTE_E2, 8, NOTE_AS2, -2,

  NOTE_E2, 8, NOTE_E2, 8, NOTE_E3, 8, NOTE_E2, 8, NOTE_E2, 8, NOTE_D3, 8, NOTE_E2, 8, NOTE_E2, 8, //13
  NOTE_C3, 8, NOTE_E2, 8, NOTE_E2, 8, NOTE_AS2, 8, NOTE_E2, 8, NOTE_E2, 8, NOTE_B2, 8, NOTE_C3, 8,
  NOTE_E2, 8, NOTE_E2, 8, NOTE_E3, 8, NOTE_E2, 8, NOTE_E2, 8, NOTE_D3, 8, NOTE_E2, 8, NOTE_E2, 8,
  NOTE_FS3, -16, NOTE_D3, -16, NOTE_B2, -16, NOTE_A3, -16, NOTE_FS3, -16, NOTE_B2, -16, NOTE_D3, -16, NOTE_FS3, -16, NOTE_A3, -16, NOTE_FS3, -16, NOTE_D3, -16, NOTE_B2, -16,

  NOTE_E2, 8, NOTE_E2, 8, NOTE_E3, 8, NOTE_E2, 8, NOTE_E2, 8, NOTE_D3, 8, NOTE_E2, 8, NOTE_E2, 8, //17
  NOTE_C3, 8, NOTE_E2, 8, NOTE_E2, 8, NOTE_AS2, 8, NOTE_E2, 8, NOTE_E2, 8, NOTE_B2, 8, NOTE_C3, 8,
  NOTE_E2, 8, NOTE_E2, 8, NOTE_E3, 8, NOTE_E2, 8, NOTE_E2, 8, NOTE_D3, 8, NOTE_E2, 8, NOTE_E2, 8,
  NOTE_C3, 8, NOTE_E2, 8, NOTE_E2, 8, NOTE_AS2, -2,

  NOTE_E2, 8, NOTE_E2, 8, NOTE_E3, 8, NOTE_E2, 8, NOTE_E2, 8, NOTE_D3, 8, NOTE_E2, 8, NOTE_E2, 8, //21
  NOTE_C3, 8, NOTE_E2, 8, NOTE_E2, 8, NOTE_AS2, 8, NOTE_E2, 8, NOTE_E2, 8, NOTE_B2, 8, NOTE_C3, 8,
  NOTE_E2, 8, NOTE_E2, 8, NOTE_E3, 8, NOTE_E2, 8, NOTE_E2, 8, NOTE_D3, 8, NOTE_E2, 8, NOTE_E2, 8,
  NOTE_B3, -16, NOTE_G3, -16, NOTE_E3, -16, NOTE_G3, -16, NOTE_B3, -16, NOTE_E4, -16, NOTE_G3, -16, NOTE_B3, -16, NOTE_E4, -16, NOTE_B3, -16, NOTE_G4, -16, NOTE_B4, -16,

  NOTE_A2, 8, NOTE_A2, 8, NOTE_A3, 8, NOTE_A2, 8, NOTE_A2, 8, NOTE_G3, 8, NOTE_A2, 8, NOTE_A2, 8, //25
  NOTE_F3, 8, NOTE_A2, 8, NOTE_A2, 8, NOTE_DS3, 8, NOTE_A2, 8, NOTE_A2, 8, NOTE_E3, 8, NOTE_F3, 8,
  NOTE_A2, 8, NOTE_A2, 8, NOTE_A3, 8, NOTE_A2, 8, NOTE_A2, 8, NOTE_G3, 8, NOTE_A2, 8, NOTE_A2, 8,
  NOTE_F3, 8, NOTE_A2, 8, NOTE_A2, 8, NOTE_DS3, -2,

  NOTE_A2, 8, NOTE_A2, 8, NOTE_A3, 8, NOTE_A2, 8, NOTE_A2, 8, NOTE_G3, 8, NOTE_A2, 8, NOTE_A2, 8, //29
  NOTE_F3, 8, NOTE_A2, 8, NOTE_A2, 8, NOTE_DS3, 8, NOTE_A2, 8, NOTE_A2, 8, NOTE_E3, 8, NOTE_F3, 8,
  NOTE_A2, 8, NOTE_A2, 8, NOTE_A3, 8, NOTE_A2, 8, NOTE_A2, 8, NOTE_G3, 8, NOTE_A2, 8, NOTE_A2, 8,
  NOTE_A3, -16, NOTE_F3, -16, NOTE_D3, -16, NOTE_A3, -16, NOTE_F3, -16, NOTE_D3, -16, NOTE_C4, -16, NOTE_A3, -16, NOTE_F3, -16, NOTE_A3, -16, NOTE_F3, -16, NOTE_D3, -16,

  NOTE_E2, 8, NOTE_E2, 8, NOTE_E3, 8, NOTE_E2, 8, NOTE_E2, 8, NOTE_D3, 8, NOTE_E2, 8, NOTE_E2, 8, //33
  NOTE_C3, 8, NOTE_E2, 8, NOTE_E2, 8, NOTE_AS2, 8, NOTE_E2, 8, NOTE_E2, 8, NOTE_B2, 8, NOTE_C3, 8,
  NOTE_E2, 8, NOTE_E2, 8, NOTE_E3, 8, NOTE_E2, 8, NOTE_E2, 8, NOTE_D3, 8, NOTE_E2, 8, NOTE_E2, 8,
  NOTE_C3, 8, NOTE_E2, 8, NOTE_E2, 8, NOTE_AS2, -2,

  NOTE_E2, 8, NOTE_E2, 8, NOTE_E3, 8, NOTE_E2, 8, NOTE_E2, 8, NOTE_D3, 8, NOTE_E2, 8, NOTE_E2, 8, //37
  NOTE_C3, 8, NOTE_E2, 8, NOTE_E2, 8, NOTE_AS2, 8, NOTE_E2, 8, NOTE_E2, 8, NOTE_B2, 8, NOTE_C3, 8,
  NOTE_E2, 8, NOTE_E2, 8, NOTE_E3, 8, NOTE_E2, 8, NOTE_E2, 8, NOTE_D3, 8, NOTE_E2, 8, NOTE_E2, 8,
  NOTE_C3, 8, NOTE_E2, 8, NOTE_E2, 8, NOTE_AS2, -2,

  NOTE_CS3, 8, NOTE_CS3, 8, NOTE_CS4, 8, NOTE_CS3, 8, NOTE_CS3, 8, NOTE_B3, 8, NOTE_CS3, 8, NOTE_CS3, 8, //41
  NOTE_A3, 8, NOTE_CS3, 8, NOTE_CS3, 8, NOTE_G3, 8, NOTE_CS3, 8, NOTE_CS3, 8, NOTE_GS3, 8, NOTE_A3, 8,
  NOTE_B2, 8, NOTE_B2, 8, NOTE_B3, 8, NOTE_B2, 8, NOTE_B2, 8, NOTE_A3, 8, NOTE_B2, 8, NOTE_B2, 8,
  NOTE_G3, 8, NOTE_B2, 8, NOTE_B2, 8, NOTE_F3, -2,

  NOTE_E2, 8, NOTE_E2, 8, NOTE_E3, 8, NOTE_E2, 8, NOTE_E2, 8, NOTE_D3, 8, NOTE_E2, 8, NOTE_E2, 8, //45
  NOTE_C3, 8, NOTE_E2, 8, NOTE_E2, 8, NOTE_AS2, 8, NOTE_E2, 8, NOTE_E2, 8, NOTE_B2, 8, NOTE_C3, 8,
  NOTE_E2, 8, NOTE_E2, 8, NOTE_E3, 8, NOTE_E2, 8, NOTE_E2, 8, NOTE_D3, 8, NOTE_E2, 8, NOTE_E2, 8,
  NOTE_B3, -16, NOTE_G3, -16, NOTE_E3, -16, NOTE_G3, -16, NOTE_B3, -16, NOTE_E4, -16, NOTE_G3, -16, NOTE_B3, -16, NOTE_E4, -16, NOTE_B3, -16, NOTE_G4, -16, NOTE_B4, -16,

  NOTE_E2, 8, NOTE_E2, 8, NOTE_E3, 8, NOTE_E2, 8, NOTE_E2, 8, NOTE_D3, 8, NOTE_E2, 8, NOTE_E2, 8, //49
  NOTE_C3, 8, NOTE_E2, 8, NOTE_E2, 8, NOTE_AS2, 8, NOTE_E2, 8, NOTE_E2, 8, NOTE_B2, 8, NOTE_C3, 8,
  NOTE_E2, 8, NOTE_E2, 8, NOTE_E3, 8, NOTE_E2, 8, NOTE_E2, 8, NOTE_D3, 8, NOTE_E2, 8, NOTE_E2, 8,
  NOTE_C3, 8, NOTE_E2, 8, NOTE_E2, 8, NOTE_AS2, -2,

  NOTE_E2, 8, NOTE_E2, 8, NOTE_E3, 8, NOTE_E2, 8, NOTE_E2, 8, NOTE_D3, 8, NOTE_E2, 8, NOTE_E2, 8, //53
  NOTE_C3, 8, NOTE_E2, 8, NOTE_E2, 8, NOTE_AS2, 8, NOTE_E2, 8, NOTE_E2, 8, NOTE_B2, 8, NOTE_C3, 8,
  NOTE_E2, 8, NOTE_E2, 8, NOTE_E3, 8, NOTE_E2, 8, NOTE_E2, 8, NOTE_D3, 8, NOTE_E2, 8, NOTE_E2, 8,
  NOTE_FS3, -16, NOTE_DS3, -16, NOTE_B2, -16, NOTE_FS3, -16, NOTE_DS3, -16, NOTE_B2, -16, NOTE_G3, -16, NOTE_D3, -16, NOTE_B2, -16, NOTE_DS4, -16, NOTE_DS3, -16, NOTE_B2, -16,

// -/-

  NOTE_E2, 8, NOTE_E2, 8, NOTE_E3, 8, NOTE_E2, 8, NOTE_E2, 8, NOTE_D3, 8, NOTE_E2, 8, NOTE_E2, 8, //57
  NOTE_C3, 8, NOTE_E2, 8, NOTE_E2, 8, NOTE_AS2, 8, NOTE_E2, 8, NOTE_E2, 8, NOTE_B2, 8, NOTE_C3, 8,
  NOTE_E2, 8, NOTE_E2, 8, NOTE_E3, 8, NOTE_E2, 8, NOTE_E2, 8, NOTE_D3, 8, NOTE_E2, 8, NOTE_E2, 8,
  NOTE_C3, 8, NOTE_E2, 8, NOTE_E2, 8, NOTE_AS2, -2,

  NOTE_E2, 8, NOTE_E2, 8, NOTE_E3, 8, NOTE_E2, 8, NOTE_E2, 8, NOTE_D3, 8, NOTE_E2, 8, NOTE_E2, 8, //61
  NOTE_C3, 8, NOTE_E2, 8, NOTE_E2, 8, NOTE_AS2, 8, NOTE_E2, 8, NOTE_E2, 8, NOTE_B2, 8, NOTE_C3, 8,
  NOTE_E2, 8, NOTE_E2, 8, NOTE_E3, 8, NOTE_E2, 8, NOTE_E2, 8, NOTE_D3, 8, NOTE_E2, 8, NOTE_E2, 8,
  NOTE_E4, -16, NOTE_B3, -16, NOTE_G3, -16, NOTE_G4, -16, NOTE_E4, -16, NOTE_G3, -16, NOTE_B3, -16, NOTE_D4, -16, NOTE_E4, -16, NOTE_G4, -16, NOTE_E4, -16, NOTE_G3, -16,  

  NOTE_E2, 8, NOTE_E2, 8, NOTE_E3, 8, NOTE_E2, 8, NOTE_E2, 8, NOTE_D3, 8, NOTE_E2, 8, NOTE_E2, 8, //65
  NOTE_C3, 8, NOTE_E2, 8, NOTE_E2, 8, NOTE_AS2, 8, NOTE_E2, 8, NOTE_E2, 8, NOTE_B2, 8, NOTE_C3, 8,
  NOTE_E2, 8, NOTE_E2, 8, NOTE_E3, 8, NOTE_E2, 8, NOTE_E2, 8, NOTE_D3, 8, NOTE_E2, 8, NOTE_E2, 8,
  NOTE_C3, 8, NOTE_E2, 8, NOTE_E2, 8, NOTE_AS2, -2,

  NOTE_A2, 8, NOTE_A2, 8, NOTE_A3, 8, NOTE_A2, 8, NOTE_A2, 8, NOTE_G3, 8, NOTE_A2, 8, NOTE_A2, 8, //69
  NOTE_F3, 8, NOTE_A2, 8, NOTE_A2, 8, NOTE_DS3, 8, NOTE_A2, 8, NOTE_A2, 8, NOTE_E3, 8, NOTE_F3, 8,
  NOTE_A2, 8, NOTE_A2, 8, NOTE_A3, 8, NOTE_A2, 8, NOTE_A2, 8, NOTE_G3, 8, NOTE_A2, 8, NOTE_A2, 8,
  NOTE_A3, -16, NOTE_F3, -16, NOTE_D3, -16, NOTE_A3, -16, NOTE_F3, -16, NOTE_D3, -16, NOTE_C4, -16, NOTE_A3, -16, NOTE_F3, -16, NOTE_A3, -16, NOTE_F3, -16, NOTE_D3, -16,

  NOTE_E2, 8, NOTE_E2, 8, NOTE_E3, 8, NOTE_E2, 8, NOTE_E2, 8, NOTE_D3, 8, NOTE_E2, 8, NOTE_E2, 8, //73
  NOTE_C3, 8, NOTE_E2, 8, NOTE_E2, 8, NOTE_AS2, 8, NOTE_E2, 8, NOTE_E2, 8, NOTE_B2, 8, NOTE_C3, 8,
  NOTE_E2, 8, NOTE_E2, 8, NOTE_E3, 8, NOTE_E2, 8, NOTE_E2, 8, NOTE_D3, 8, NOTE_E2, 8, NOTE_E2, 8,
  NOTE_C3, 8, NOTE_E2, 8, NOTE_E2, 8, NOTE_AS2, -2,

  NOTE_E2, 8, NOTE_E2, 8, NOTE_E3, 8, NOTE_E2, 8, NOTE_E2, 8, NOTE_D3, 8, NOTE_E2, 8, NOTE_E2, 8, //77
  NOTE_C3, 8, NOTE_E2, 8, NOTE_E2, 8, NOTE_AS2, 8, NOTE_E2, 8, NOTE_E2, 8, NOTE_B2, 8, NOTE_C3, 8,
  NOTE_E2, 8, NOTE_E2, 8, NOTE_E3, 8, NOTE_E2, 8, NOTE_E2, 8, NOTE_D3, 8, NOTE_E2, 8, NOTE_E2, 8,
  NOTE_C3, 8, NOTE_E2, 8, NOTE_E2, 8, NOTE_AS2, -2,

  NOTE_E2, 8, NOTE_E2, 8, NOTE_E3, 8, NOTE_E2, 8, NOTE_E2, 8, NOTE_D3, 8, NOTE_E2, 8, NOTE_E2, 8, //81
  NOTE_C3, 8, NOTE_E2, 8, NOTE_E2, 8, NOTE_AS2, 8, NOTE_E2, 8, NOTE_E2, 8, NOTE_B2, 8, NOTE_C3, 8,
  NOTE_E2, 8, NOTE_E2, 8, NOTE_E3, 8, NOTE_E2, 8, NOTE_E2, 8, NOTE_D3, 8, NOTE_E2, 8, NOTE_E2, 8,
  NOTE_C3, 8, NOTE_E2, 8, NOTE_E2, 8, NOTE_AS2, -2,

  NOTE_E2, 8, NOTE_E2, 8, NOTE_E3, 8, NOTE_E2, 8, NOTE_E2, 8, NOTE_D3, 8, NOTE_E2, 8, NOTE_E2, 8, //73
  NOTE_C3, 8, NOTE_E2, 8, NOTE_E2, 8, NOTE_AS2, 8, NOTE_E2, 8, NOTE_E2, 8, NOTE_B2, 8, NOTE_C3, 8,
  NOTE_E2, 8, NOTE_E2, 8, NOTE_E3, 8, NOTE_E2, 8, NOTE_E2, 8, NOTE_D3, 8, NOTE_E2, 8, NOTE_E2, 8,
  NOTE_B3, -16, NOTE_G3, -16, NOTE_E3, -16, NOTE_B2, -16, NOTE_E3, -16, NOTE_G3, -16, NOTE_C4, -16, NOTE_B3, -16, NOTE_G3, -16, NOTE_B3, -16, NOTE_G3, -16, NOTE_E3, -16,  
};

  Melody m(225,melody,sizeof(melody)/sizeof(*melody)/2);
  m.play(buzzer);
}
void greenHillMelody(int buzzer) {
  // notes of the moledy followed by the duration.
// a 4 means a quarter note, 8 an eighteenth , 16 sixteenth, so on
// !!negative numbers are used to represent dotted notes,
// so -4 means a dotted quarter note, that is, a quarter plus an eighteenth!!
int melody[] = {

  // Gren Hill Zone - Sonic the Hedgehog
  // Score available at https://musescore.com/user/248346/scores/461661
  // Theme by Masato Nakamura, arranged by Teddy Mason
  
  REST,2, NOTE_D5,8, NOTE_B4,4, NOTE_D5,8, //1
  NOTE_CS5,4, NOTE_D5,8, NOTE_CS5,4, NOTE_A4,2, 
  REST,8, NOTE_A4,8, NOTE_FS5,8, NOTE_E5,4, NOTE_D5,8,
  NOTE_CS5,4, NOTE_D5,8, NOTE_CS5,4, NOTE_A4,2, 
  REST,4, NOTE_D5,8, NOTE_B4,4, NOTE_D5,8,
  NOTE_CS5,4, NOTE_D5,8, NOTE_CS5,4, NOTE_A4,2, 

  REST,8, NOTE_B4,8, NOTE_B4,8, NOTE_G4,4, NOTE_B4,8, //7
  NOTE_A4,4, NOTE_B4,8, NOTE_A4,4, NOTE_D4,2,
  REST,4, NOTE_D5,8, NOTE_B4,4, NOTE_D5,8,
  NOTE_CS5,4, NOTE_D5,8, NOTE_CS5,4, NOTE_A4,2, 
  REST,8, NOTE_A4,8, NOTE_FS5,8, NOTE_E5,4, NOTE_D5,8,
  NOTE_CS5,4, NOTE_D5,8, NOTE_CS5,4, NOTE_A4,2, 

  REST,4, NOTE_D5,8, NOTE_B4,4, NOTE_D5,8, //13
  NOTE_CS5,4, NOTE_D5,8, NOTE_CS5,4, NOTE_A4,2, 
  REST,8, NOTE_B4,8, NOTE_B4,8, NOTE_G4,4, NOTE_B4,8,
  NOTE_A4,4, NOTE_B4,8, NOTE_A4,4, NOTE_D4,8, NOTE_D4,8, NOTE_FS4,8,
  NOTE_E4,-1,
  REST,8, NOTE_D4,8, NOTE_E4,8, NOTE_FS4,-1,

  REST,8, NOTE_D4,8, NOTE_D4,8, NOTE_FS4,8, NOTE_F4,-1, //20
  REST,8, NOTE_D4,8, NOTE_F4,8, NOTE_E4,-1, //end 1

  //repeats from 1

  REST,2, NOTE_D5,8, NOTE_B4,4, NOTE_D5,8, //1
  NOTE_CS5,4, NOTE_D5,8, NOTE_CS5,4, NOTE_A4,2, 
  REST,8, NOTE_A4,8, NOTE_FS5,8, NOTE_E5,4, NOTE_D5,8,
  NOTE_CS5,4, NOTE_D5,8, NOTE_CS5,4, NOTE_A4,2, 
  REST,4, NOTE_D5,8, NOTE_B4,4, NOTE_D5,8,
  NOTE_CS5,4, NOTE_D5,8, NOTE_CS5,4, NOTE_A4,2, 

  REST,8, NOTE_B4,8, NOTE_B4,8, NOTE_G4,4, NOTE_B4,8, //7
  NOTE_A4,4, NOTE_B4,8, NOTE_A4,4, NOTE_D4,2,
  REST,4, NOTE_D5,8, NOTE_B4,4, NOTE_D5,8,
  NOTE_CS5,4, NOTE_D5,8, NOTE_CS5,4, NOTE_A4,2, 
  REST,8, NOTE_A4,8, NOTE_FS5,8, NOTE_E5,4, NOTE_D5,8,
  NOTE_CS5,4, NOTE_D5,8, NOTE_CS5,4, NOTE_A4,2, 

  REST,4, NOTE_D5,8, NOTE_B4,4, NOTE_D5,8, //13
  NOTE_CS5,4, NOTE_D5,8, NOTE_CS5,4, NOTE_A4,2, 
  REST,8, NOTE_B4,8, NOTE_B4,8, NOTE_G4,4, NOTE_B4,8,
  NOTE_A4,4, NOTE_B4,8, NOTE_A4,4, NOTE_D4,8, NOTE_D4,8, NOTE_FS4,8,
  NOTE_E4,-1,
  REST,8, NOTE_D4,8, NOTE_E4,8, NOTE_FS4,-1,

  REST,8, NOTE_D4,8, NOTE_D4,8, NOTE_FS4,8, NOTE_F4,-1, //20
  REST,8, NOTE_D4,8, NOTE_F4,8, NOTE_E4,8, //end 2
  NOTE_E4,-2, NOTE_A4,8, NOTE_CS5,8, 
  NOTE_FS5,8, NOTE_E5,4, NOTE_D5,8, NOTE_A5,-4,

};
  Melody m(140,melody,sizeof(melody)/sizeof(*melody)/2);
  m.play(buzzer);
}
void jigglypuffsongMelody(int buzzer) {
  // notes of the moledy followed by the duration.
// a 4 means a quarter note, 8 an eighteenth , 16 sixteenth, so on
// !!negative numbers are used to represent dotted notes,
// so -4 means a dotted quarter note, that is, a quarter plus an eighteenth!!
int melody[] = {

  // Jigglypuff's Song
  // Score available at https://musescore.com/user/28109683/scores/5044153
  
  NOTE_D5,-4, NOTE_A5,8, NOTE_FS5,8, NOTE_D5,8,
  NOTE_E5,-4, NOTE_FS5,8, NOTE_G5,4,
  NOTE_FS5,-4, NOTE_E5,8, NOTE_FS5,4,
  NOTE_D5,-2,
  NOTE_D5,-4, NOTE_A5,8, NOTE_FS5,8, NOTE_D5,8,
  NOTE_E5,-4, NOTE_FS5,8, NOTE_G5,4,
  NOTE_FS5,-1,
  NOTE_D5,-4, NOTE_A5,8, NOTE_FS5,8, NOTE_D5,8,
  NOTE_E5,-4, NOTE_FS5,8, NOTE_G5,4,
  
  NOTE_FS5,-4, NOTE_E5,8, NOTE_FS5,4,
  NOTE_D5,-2,
  NOTE_D5,-4, NOTE_A5,8, NOTE_FS5,8, NOTE_D5,8,
  NOTE_E5,-4, NOTE_FS5,8, NOTE_G5,4,
  NOTE_FS5,-1,
  
};
Melody m(85,melody,sizeof(melody)/sizeof(*melody)/2);
  m.play(buzzer);
}
void nevergonnagiveyouupMelody(int buzzer) {
  // notes of the moledy followed by the duration.
// a 4 means a quarter note, 8 an eighteenth , 16 sixteenth, so on
// !!negative numbers are used to represent dotted notes,
// so -4 means a dotted quarter note, that is, a quarter plus an eighteenth!!
int melody[] = {

  // Never Gonna Give You Up - Rick Astley
  // Score available at https://musescore.com/chlorondria_5/never-gonna-give-you-up_alto-sax
  // Arranged by Chlorondria

  NOTE_D5,-4, NOTE_E5,-4, NOTE_A4,4, //1
  NOTE_E5,-4, NOTE_FS5,-4, NOTE_A5,16, NOTE_G5,16, NOTE_FS5,8,
  NOTE_D5,-4, NOTE_E5,-4, NOTE_A4,2,
  NOTE_A4,16, NOTE_A4,16, NOTE_B4,16, NOTE_D5,8, NOTE_D5,16,
  NOTE_D5,-4, NOTE_E5,-4, NOTE_A4,4, //repeat from 1
  NOTE_E5,-4, NOTE_FS5,-4, NOTE_A5,16, NOTE_G5,16, NOTE_FS5,8,
  NOTE_D5,-4, NOTE_E5,-4, NOTE_A4,2,
  NOTE_A4,16, NOTE_A4,16, NOTE_B4,16, NOTE_D5,8, NOTE_D5,16,
  REST,4, NOTE_B4,8, NOTE_CS5,8, NOTE_D5,8, NOTE_D5,8, NOTE_E5,8, NOTE_CS5,-8,
  NOTE_B4,16, NOTE_A4,2, REST,4, 

  REST,8, NOTE_B4,8, NOTE_B4,8, NOTE_CS5,8, NOTE_D5,8, NOTE_B4,4, NOTE_A4,8, //7
  NOTE_A5,8, REST,8, NOTE_A5,8, NOTE_E5,-4, REST,4, 
  NOTE_B4,8, NOTE_B4,8, NOTE_CS5,8, NOTE_D5,8, NOTE_B4,8, NOTE_D5,8, NOTE_E5,8, REST,8,
  REST,8, NOTE_CS5,8, NOTE_B4,8, NOTE_A4,-4, REST,4,
  REST,8, NOTE_B4,8, NOTE_B4,8, NOTE_CS5,8, NOTE_D5,8, NOTE_B4,8, NOTE_A4,4,
  NOTE_E5,8, NOTE_E5,8, NOTE_E5,8, NOTE_FS5,8, NOTE_E5,4, REST,4,
   
  NOTE_D5,2, NOTE_E5,8, NOTE_FS5,8, NOTE_D5,8, //13
  NOTE_E5,8, NOTE_E5,8, NOTE_E5,8, NOTE_FS5,8, NOTE_E5,4, NOTE_A4,4,
  REST,2, NOTE_B4,8, NOTE_CS5,8, NOTE_D5,8, NOTE_B4,8,
  REST,8, NOTE_E5,8, NOTE_FS5,8, NOTE_E5,-4, NOTE_A4,16, NOTE_B4,16, NOTE_D5,16, NOTE_B4,16,
  NOTE_FS5,-8, NOTE_FS5,-8, NOTE_E5,-4, NOTE_A4,16, NOTE_B4,16, NOTE_D5,16, NOTE_B4,16,

  NOTE_E5,-8, NOTE_E5,-8, NOTE_D5,-8, NOTE_CS5,16, NOTE_B4,-8, NOTE_A4,16, NOTE_B4,16, NOTE_D5,16, NOTE_B4,16, //18
  NOTE_D5,4, NOTE_E5,8, NOTE_CS5,-8, NOTE_B4,16, NOTE_A4,8, NOTE_A4,8, NOTE_A4,8, 
  NOTE_E5,4, NOTE_D5,2, NOTE_A4,16, NOTE_B4,16, NOTE_D5,16, NOTE_B4,16,
  NOTE_FS5,-8, NOTE_FS5,-8, NOTE_E5,-4, NOTE_A4,16, NOTE_B4,16, NOTE_D5,16, NOTE_B4,16,
  NOTE_A5,4, NOTE_CS5,8, NOTE_D5,-8, NOTE_CS5,16, NOTE_B4,8, NOTE_A4,16, NOTE_B4,16, NOTE_D5,16, NOTE_B4,16,

  NOTE_D5,4, NOTE_E5,8, NOTE_CS5,-8, NOTE_B4,16, NOTE_A4,4, NOTE_A4,8,  //23
  NOTE_E5,4, NOTE_D5,2, REST,4,
  REST,8, NOTE_B4,8, NOTE_D5,8, NOTE_B4,8, NOTE_D5,8, NOTE_E5,4, REST,8,
  REST,8, NOTE_CS5,8, NOTE_B4,8, NOTE_A4,-4, REST,4,
  REST,8, NOTE_B4,8, NOTE_B4,8, NOTE_CS5,8, NOTE_D5,8, NOTE_B4,8, NOTE_A4,4,
  REST,8, NOTE_A5,8, NOTE_A5,8, NOTE_E5,8, NOTE_FS5,8, NOTE_E5,8, NOTE_D5,8,
  
  REST,8, NOTE_A4,8, NOTE_B4,8, NOTE_CS5,8, NOTE_D5,8, NOTE_B4,8, //29
  REST,8, NOTE_CS5,8, NOTE_B4,8, NOTE_A4,-4, REST,4,
  NOTE_B4,8, NOTE_B4,8, NOTE_CS5,8, NOTE_D5,8, NOTE_B4,8, NOTE_A4,4, REST,8,
  REST,8, NOTE_E5,8, NOTE_E5,8, NOTE_FS5,4, NOTE_E5,-4, 
  NOTE_D5,2, NOTE_D5,8, NOTE_E5,8, NOTE_FS5,8, NOTE_E5,4, 
  NOTE_E5,8, NOTE_E5,8, NOTE_FS5,8, NOTE_E5,8, NOTE_A4,8, NOTE_A4,4,

  REST,-4, NOTE_A4,8, NOTE_B4,8, NOTE_CS5,8, NOTE_D5,8, NOTE_B4,8, //35
  REST,8, NOTE_E5,8, NOTE_FS5,8, NOTE_E5,-4, NOTE_A4,16, NOTE_B4,16, NOTE_D5,16, NOTE_B4,16,
  NOTE_FS5,-8, NOTE_FS5,-8, NOTE_E5,-4, NOTE_A4,16, NOTE_B4,16, NOTE_D5,16, NOTE_B4,16,
  NOTE_E5,-8, NOTE_E5,-8, NOTE_D5,-8, NOTE_CS5,16, NOTE_B4,8, NOTE_A4,16, NOTE_B4,16, NOTE_D5,16, NOTE_B4,16,
  NOTE_D5,4, NOTE_E5,8, NOTE_CS5,-8, NOTE_B4,16, NOTE_A4,4, NOTE_A4,8, 

   NOTE_E5,4, NOTE_D5,2, NOTE_A4,16, NOTE_B4,16, NOTE_D5,16, NOTE_B4,16, //40
  NOTE_FS5,-8, NOTE_FS5,-8, NOTE_E5,-4, NOTE_A4,16, NOTE_B4,16, NOTE_D5,16, NOTE_B4,16,
  NOTE_A5,4, NOTE_CS5,8, NOTE_D5,-8, NOTE_CS5,16, NOTE_B4,8, NOTE_A4,16, NOTE_B4,16, NOTE_D5,16, NOTE_B4,16,
  NOTE_D5,4, NOTE_E5,8, NOTE_CS5,-8, NOTE_B4,16, NOTE_A4,4, NOTE_A4,8,  
  NOTE_E5,4, NOTE_D5,2, NOTE_A4,16, NOTE_B4,16, NOTE_D5,16, NOTE_B4,16,
   
  NOTE_FS5,-8, NOTE_FS5,-8, NOTE_E5,-4, NOTE_A4,16, NOTE_B4,16, NOTE_D5,16, NOTE_B4,16, //45
  NOTE_A5,4, NOTE_CS5,8, NOTE_D5,-8, NOTE_CS5,16, NOTE_B4,8, NOTE_A4,16, NOTE_B4,16, NOTE_D5,16, NOTE_B4,16,
  NOTE_D5,4, NOTE_E5,8, NOTE_CS5,-8, NOTE_B4,16, NOTE_A4,4, NOTE_A4,8,  
  NOTE_E5,4, NOTE_D5,2, NOTE_A4,16, NOTE_B4,16, NOTE_D5,16, NOTE_B4,16,
  NOTE_FS5,-8, NOTE_FS5,-8, NOTE_E5,-4, NOTE_A4,16, NOTE_B4,16, NOTE_D5,16, NOTE_B4,16, //45
  
  NOTE_A5,4, NOTE_CS5,8, NOTE_D5,-8, NOTE_CS5,16, NOTE_B4,8, NOTE_A4,16, NOTE_B4,16, NOTE_D5,16, NOTE_B4,16,
  NOTE_D5,4, NOTE_E5,8, NOTE_CS5,-8, NOTE_B4,16, NOTE_A4,4, NOTE_A4,8, 

  NOTE_E5,4, NOTE_D5,2, REST,4
};
  Melody m(114,melody,sizeof(melody)/sizeof(*melody)/2);
  m.play(buzzer);
}

void fureliseMelody(int buzzer,bool (*func)()) {
  int melody[] = {

  // Fur Elise - Ludwig van Beethovem
  // Score available at https://musescore.com/user/28149610/scores/5281944

  //starts from 1 ending on 9
  NOTE_E5, 16, NOTE_DS5, 16, //1
  NOTE_E5, 16, NOTE_DS5, 16, NOTE_E5, 16, NOTE_B4, 16, NOTE_D5, 16, NOTE_C5, 16,
  NOTE_A4, -8, NOTE_C4, 16, NOTE_E4, 16, NOTE_A4, 16,
  NOTE_B4, -8, NOTE_E4, 16, NOTE_GS4, 16, NOTE_B4, 16,
  NOTE_C5, 8,  REST, 16, NOTE_E4, 16, NOTE_E5, 16,  NOTE_DS5, 16,
  
  NOTE_E5, 16, NOTE_DS5, 16, NOTE_E5, 16, NOTE_B4, 16, NOTE_D5, 16, NOTE_C5, 16,//6
  NOTE_A4, -8, NOTE_C4, 16, NOTE_E4, 16, NOTE_A4, 16, 
  NOTE_B4, -8, NOTE_E4, 16, NOTE_C5, 16, NOTE_B4, 16, 
  NOTE_A4 , 4, REST, 8, //9 - 1st ending

  //repaets from 1 ending on 10
  NOTE_E5, 16, NOTE_DS5, 16, //1
  NOTE_E5, 16, NOTE_DS5, 16, NOTE_E5, 16, NOTE_B4, 16, NOTE_D5, 16, NOTE_C5, 16,
  NOTE_A4, -8, NOTE_C4, 16, NOTE_E4, 16, NOTE_A4, 16,
  NOTE_B4, -8, NOTE_E4, 16, NOTE_GS4, 16, NOTE_B4, 16,
  NOTE_C5, 8,  REST, 16, NOTE_E4, 16, NOTE_E5, 16,  NOTE_DS5, 16,
  
  NOTE_E5, 16, NOTE_DS5, 16, NOTE_E5, 16, NOTE_B4, 16, NOTE_D5, 16, NOTE_C5, 16,//6
  NOTE_A4, -8, NOTE_C4, 16, NOTE_E4, 16, NOTE_A4, 16, 
  NOTE_B4, -8, NOTE_E4, 16, NOTE_C5, 16, NOTE_B4, 16, 
  NOTE_A4, 8, REST, 16, NOTE_B4, 16, NOTE_C5, 16, NOTE_D5, 16, //10 - 2nd ending
  //continues from 11
  NOTE_E5, -8, NOTE_G4, 16, NOTE_F5, 16, NOTE_E5, 16, 
  NOTE_D5, -8, NOTE_F4, 16, NOTE_E5, 16, NOTE_D5, 16, //12
  
  NOTE_C5, -8, NOTE_E4, 16, NOTE_D5, 16, NOTE_C5, 16, //13
  NOTE_B4, 8, REST, 16, NOTE_E4, 16, NOTE_E5, 16, REST, 16,
  REST, 16, NOTE_E5, 16, NOTE_E6, 16, REST, 16, REST, 16, NOTE_DS5, 16,
  NOTE_E5, 16, REST, 16, REST, 16, NOTE_DS5, 16, NOTE_E5, 16, NOTE_DS5, 16,
  NOTE_E5, 16, NOTE_DS5, 16, NOTE_E5, 16, NOTE_B4, 16, NOTE_D5, 16, NOTE_C5, 16,
  NOTE_A4, 8, REST, 16, NOTE_C4, 16, NOTE_E4, 16, NOTE_A4, 16,
  
  NOTE_B4, 8, REST, 16, NOTE_E4, 16, NOTE_GS4, 16, NOTE_B4, 16, //19
  NOTE_C5, 8, REST, 16, NOTE_E4, 16, NOTE_E5, 16,  NOTE_DS5, 16,
  NOTE_E5, 16, NOTE_DS5, 16, NOTE_E5, 16, NOTE_B4, 16, NOTE_D5, 16, NOTE_C5, 16,
  NOTE_A4, 8, REST, 16, NOTE_C4, 16, NOTE_E4, 16, NOTE_A4, 16,
  NOTE_B4, 8, REST, 16, NOTE_E4, 16, NOTE_C5, 16, NOTE_B4, 16,
  NOTE_A4, 8, REST, 16, NOTE_B4, 16, NOTE_C5, 16, NOTE_D5, 16, //24 (1st ending)
  
  //repeats from 11
  NOTE_E5, -8, NOTE_G4, 16, NOTE_F5, 16, NOTE_E5, 16, 
  NOTE_D5, -8, NOTE_F4, 16, NOTE_E5, 16, NOTE_D5, 16, //12
  
  NOTE_C5, -8, NOTE_E4, 16, NOTE_D5, 16, NOTE_C5, 16, //13
  NOTE_B4, 8, REST, 16, NOTE_E4, 16, NOTE_E5, 16, REST, 16,
  REST, 16, NOTE_E5, 16, NOTE_E6, 16, REST, 16, REST, 16, NOTE_DS5, 16,
  NOTE_E5, 16, REST, 16, REST, 16, NOTE_DS5, 16, NOTE_E5, 16, NOTE_DS5, 16,
  NOTE_E5, 16, NOTE_DS5, 16, NOTE_E5, 16, NOTE_B4, 16, NOTE_D5, 16, NOTE_C5, 16,
  NOTE_A4, 8, REST, 16, NOTE_C4, 16, NOTE_E4, 16, NOTE_A4, 16,
  
  NOTE_B4, 8, REST, 16, NOTE_E4, 16, NOTE_GS4, 16, NOTE_B4, 16, //19
  NOTE_C5, 8, REST, 16, NOTE_E4, 16, NOTE_E5, 16,  NOTE_DS5, 16,
  NOTE_E5, 16, NOTE_DS5, 16, NOTE_E5, 16, NOTE_B4, 16, NOTE_D5, 16, NOTE_C5, 16,
  NOTE_A4, 8, REST, 16, NOTE_C4, 16, NOTE_E4, 16, NOTE_A4, 16,
  NOTE_B4, 8, REST, 16, NOTE_E4, 16, NOTE_C5, 16, NOTE_B4, 16,
  NOTE_A4, 8, REST, 16, NOTE_C5, 16, NOTE_C5, 16, NOTE_C5, 16, //25 - 2nd ending

  //continues from 26
  NOTE_C5 , 4, NOTE_F5, -16, NOTE_E5, 32, //26
  NOTE_E5, 8, NOTE_D5, 8, NOTE_AS5, -16, NOTE_A5, 32,
  NOTE_A5, 16, NOTE_G5, 16, NOTE_F5, 16, NOTE_E5, 16, NOTE_D5, 16, NOTE_C5, 16,
  NOTE_AS4, 8, NOTE_A4, 8, NOTE_A4, 32, NOTE_G4, 32, NOTE_A4, 32, NOTE_B4, 32,
  NOTE_C5 , 4, NOTE_D5, 16, NOTE_DS5, 16,
  NOTE_E5, -8, NOTE_E5, 16, NOTE_F5, 16, NOTE_A4, 16,
  NOTE_C5 , 4,  NOTE_D5, -16, NOTE_B4, 32,
  
  
  NOTE_C5, 32, NOTE_G5, 32, NOTE_G4, 32, NOTE_G5, 32, NOTE_A4, 32, NOTE_G5, 32, NOTE_B4, 32, NOTE_G5, 32, NOTE_C5, 32, NOTE_G5, 32, NOTE_D5, 32, NOTE_G5, 32, //33
  NOTE_E5, 32, NOTE_G5, 32, NOTE_C6, 32, NOTE_B5, 32, NOTE_A5, 32, NOTE_G5, 32, NOTE_F5, 32, NOTE_E5, 32, NOTE_D5, 32, NOTE_G5, 32, NOTE_F5, 32, NOTE_D5, 32,
  NOTE_C5, 32, NOTE_G5, 32, NOTE_G4, 32, NOTE_G5, 32, NOTE_A4, 32, NOTE_G5, 32, NOTE_B4, 32, NOTE_G5, 32, NOTE_C5, 32, NOTE_G5, 32, NOTE_D5, 32, NOTE_G5, 32,

  NOTE_E5, 32, NOTE_G5, 32, NOTE_C6, 32, NOTE_B5, 32, NOTE_A5, 32, NOTE_G5, 32, NOTE_F5, 32, NOTE_E5, 32, NOTE_D5, 32, NOTE_G5, 32, NOTE_F5, 32, NOTE_D5, 32, //36
  NOTE_E5, 32, NOTE_F5, 32, NOTE_E5, 32, NOTE_DS5, 32, NOTE_E5, 32, NOTE_B4, 32, NOTE_E5, 32, NOTE_DS5, 32, NOTE_E5, 32, NOTE_B4, 32, NOTE_E5, 32, NOTE_DS5, 32,
  NOTE_E5, -8, NOTE_B4, 16, NOTE_E5, 16, NOTE_DS5, 16,
  NOTE_E5, -8, NOTE_B4, 16, NOTE_E5, 16, REST, 16,

  REST, 16, NOTE_DS5, 16, NOTE_E5, 16, REST, 16, REST, 16, NOTE_DS5, 16, //40
  NOTE_E5, 16, NOTE_DS5, 16, NOTE_E5, 16, NOTE_B4, 16, NOTE_D5, 16, NOTE_C5, 16,
  NOTE_A4, 8, REST, 16, NOTE_C4, 16, NOTE_E4, 16, NOTE_A4, 16,
  NOTE_B4, 8, REST, 16, NOTE_E4, 16, NOTE_GS4, 16, NOTE_B4, 16,
  NOTE_C5, 8, REST, 16, NOTE_E4, 16, NOTE_E5, 16, NOTE_DS5, 16,
  NOTE_E5, 16, NOTE_DS5, 16, NOTE_E5, 16, NOTE_B4, 16, NOTE_D5, 16, NOTE_C5, 16,

  NOTE_A4, 8, REST, 16, NOTE_C4, 16, NOTE_E4, 16, NOTE_A4, 16, //46
  NOTE_B4, 8, REST, 16, NOTE_E4, 16, NOTE_C5, 16, NOTE_B4, 16,
  NOTE_A4, 8, REST, 16, NOTE_B4, 16, NOTE_C5, 16, NOTE_D5, 16,
  NOTE_E5, -8, NOTE_G4, 16, NOTE_F5, 16, NOTE_E5, 16,
  NOTE_D5, -8, NOTE_F4, 16, NOTE_E5, 16, NOTE_D5, 16,
  NOTE_C5, -8, NOTE_E4, 16, NOTE_D5, 16, NOTE_C5, 16,
  NOTE_B4, 8, REST, 16, NOTE_E4, 16, NOTE_E5, 16, REST, 16,
  REST, 16, NOTE_E5, 16, NOTE_E6, 16, REST, 16, REST, 16, NOTE_DS5, 16,

  NOTE_E5, 16, REST, 16, REST, 16, NOTE_DS5, 16, NOTE_E5, 16, NOTE_D5, 16, //54
  NOTE_E5, 16, NOTE_DS5, 16, NOTE_E5, 16, NOTE_B4, 16, NOTE_D5, 16, NOTE_C5, 16,
  NOTE_A4, 8, REST, 16, NOTE_C4, 16, NOTE_E4, 16, NOTE_A4, 16,
  NOTE_B4, 8, REST, 16, NOTE_E4, 16, NOTE_GS4, 16, NOTE_B4, 16,
  NOTE_C5, 8, REST, 16, NOTE_E4, 16, NOTE_E5, 16, NOTE_DS5, 16,
  NOTE_E5, 16, NOTE_DS5, 16, NOTE_E5, 16, NOTE_B4, 16, NOTE_D5, 16, NOTE_C5, 16,
  
  NOTE_A4, 8, REST, 16, NOTE_C4, 16, NOTE_E4, 16, NOTE_A4, 16, //60
  NOTE_B4, 8, REST, 16, NOTE_E4, 16, NOTE_C5, 16, NOTE_B4, 16,
  NOTE_A4, 8, REST, 16, REST, 16, REST, 8, 
  NOTE_CS5 , -4, 
  NOTE_D5 , 4, NOTE_E5, 16, NOTE_F5, 16,
  NOTE_F5 , 4, NOTE_F5, 8, 
  NOTE_E5 , -4,
  NOTE_D5 , 4, NOTE_C5, 16, NOTE_B4, 16,
  NOTE_A4 , 4, NOTE_A4, 8,
  NOTE_A4, 8, NOTE_C5, 8, NOTE_B4, 8,
  NOTE_A4 , -4,
  NOTE_CS5 , -4,

  NOTE_D5 , 4, NOTE_E5, 16, NOTE_F5, 16, //72
  NOTE_F5 , 4, NOTE_F5, 8,
  NOTE_F5 , -4,
  NOTE_DS5 , 4, NOTE_D5, 16, NOTE_C5, 16,
  NOTE_AS4 , 4, NOTE_A4, 8,
  NOTE_GS4 , 4, NOTE_G4, 8,
  NOTE_A4 , -4,
  NOTE_B4 , 4, REST, 8,
  NOTE_A3, -32, NOTE_C4, -32, NOTE_E4, -32, NOTE_A4, -32, NOTE_C5, -32, NOTE_E5, -32, NOTE_D5, -32, NOTE_C5, -32, NOTE_B4, -32,

  NOTE_A4, -32, NOTE_C5, -32, NOTE_E5, -32, NOTE_A5, -32, NOTE_C6, -32, NOTE_E6, -32, NOTE_D6, -32, NOTE_C6, -32, NOTE_B5, -32, //80
  NOTE_A4, -32, NOTE_C5, -32, NOTE_E5, -32, NOTE_A5, -32, NOTE_C6, -32, NOTE_E6, -32, NOTE_D6, -32, NOTE_C6, -32, NOTE_B5, -32,
  NOTE_AS5, -32, NOTE_A5, -32, NOTE_GS5, -32, NOTE_G5, -32, NOTE_FS5, -32, NOTE_F5, -32, NOTE_E5, -32, NOTE_DS5, -32, NOTE_D5, -32,

  NOTE_CS5, -32, NOTE_C5, -32, NOTE_B4, -32, NOTE_AS4, -32, NOTE_A4, -32, NOTE_GS4, -32, NOTE_G4, -32, NOTE_FS4, -32, NOTE_F4, -32, //84
  NOTE_E4, 16, NOTE_DS5, 16, NOTE_E5, 16, NOTE_B4, 16, NOTE_D5, 16, NOTE_C5, 16,
  NOTE_A4, -8, NOTE_C4, 16, NOTE_E4, 16, NOTE_A4, 16,
  NOTE_B4, -8, NOTE_E4, 16, NOTE_GS4, 16, NOTE_B4, 16,

  NOTE_C5, 8, REST, 16, NOTE_E4, 16, NOTE_E5, 16, NOTE_DS5, 16, //88
  NOTE_E5, 16, NOTE_DS5, 16, NOTE_E5, 16, NOTE_B4, 16, NOTE_D5, 16, NOTE_C5, 16, 
  NOTE_A4, -8, NOTE_C4, 16, NOTE_E4, 16, NOTE_A4, 16, 
  NOTE_B4, -8, NOTE_E4, 16, NOTE_C5, 16, NOTE_B4, 16, 
  NOTE_A4, -8, REST, -8,
  REST, -8, NOTE_G4, 16, NOTE_F5, 16, NOTE_E5, 16,
  NOTE_D5 , 4, REST, 8,
  REST, -8, NOTE_E4, 16, NOTE_D5, 16, NOTE_C5, 16,
  
  NOTE_B4, -8, NOTE_E4, 16, NOTE_E5, 8, //96
  NOTE_E5, 8, NOTE_E6, -8, NOTE_DS5, 16,
  NOTE_E5, 16, REST, 16, REST, 16, NOTE_DS5, 16, NOTE_E5, 16, NOTE_DS5, 16,
  NOTE_E5, 16, NOTE_DS5, 16, NOTE_E5, 16, NOTE_B4, 16, NOTE_D5, 16, NOTE_C5, 16,
  NOTE_A4, -8, NOTE_C4, 16, NOTE_E4, 16, NOTE_A4, 16,
  NOTE_B4, -8, NOTE_E4, 16, NOTE_GS4, 16, NOTE_B4, 16,

  NOTE_C5, 8, REST, 16, NOTE_E4, 16, NOTE_E5, 16, NOTE_DS5, 16, //102
  NOTE_E5, 16, NOTE_DS5, 16, NOTE_E5, 16, NOTE_B4, 16, NOTE_D5, 16, NOTE_C5, 16,
  NOTE_A4, -8, NOTE_C4, 16, NOTE_E4, 16, NOTE_A4, 16,
  NOTE_B4, -8, NOTE_E4, 16, NOTE_C5, 16, NOTE_B4, 16,
  NOTE_A4 , -4,
};
  Melody m(80,melody,sizeof(melody)/sizeof(*melody)/2);
  m.play(buzzer,func);

}

void superMarioMelody(int buzzer,bool (*func)()) {
  // notes of the moledy followed by the duration.
// a 4 means a quarter note, 8 an eighteenth , 16 sixteenth, so on
// !!negative numbers are used to represent dotted notes,
// so -4 means a dotted quarter note, that is, a quarter plus an eighteenth!!
int melody[] = {

  // Super Mario Bros theme
  // Score available at https://musescore.com/user/2123/scores/2145
  // Theme by Koji Kondo
  
  
  NOTE_E5,8, NOTE_E5,8, REST,8, NOTE_E5,8, REST,8, NOTE_C5,8, NOTE_E5,8, //1
  NOTE_G5,4, REST,4, NOTE_G4,8, REST,4, 
  NOTE_C5,-4, NOTE_G4,8, REST,4, NOTE_E4,-4, // 3
  NOTE_A4,4, NOTE_B4,4, NOTE_AS4,8, NOTE_A4,4,
  NOTE_G4,-8, NOTE_E5,-8, NOTE_G5,-8, NOTE_A5,4, NOTE_F5,8, NOTE_G5,8,
  REST,8, NOTE_E5,4,NOTE_C5,8, NOTE_D5,8, NOTE_B4,-4,
  NOTE_C5,-4, NOTE_G4,8, REST,4, NOTE_E4,-4, // repeats from 3
  NOTE_A4,4, NOTE_B4,4, NOTE_AS4,8, NOTE_A4,4,
  NOTE_G4,-8, NOTE_E5,-8, NOTE_G5,-8, NOTE_A5,4, NOTE_F5,8, NOTE_G5,8,
  REST,8, NOTE_E5,4,NOTE_C5,8, NOTE_D5,8, NOTE_B4,-4,

  
  REST,4, NOTE_G5,8, NOTE_FS5,8, NOTE_F5,8, NOTE_DS5,4, NOTE_E5,8,//7
  REST,8, NOTE_GS4,8, NOTE_A4,8, NOTE_C4,8, REST,8, NOTE_A4,8, NOTE_C5,8, NOTE_D5,8,
  REST,4, NOTE_DS5,4, REST,8, NOTE_D5,-4,
  NOTE_C5,2, REST,2,

  REST,4, NOTE_G5,8, NOTE_FS5,8, NOTE_F5,8, NOTE_DS5,4, NOTE_E5,8,//repeats from 7
  REST,8, NOTE_GS4,8, NOTE_A4,8, NOTE_C4,8, REST,8, NOTE_A4,8, NOTE_C5,8, NOTE_D5,8,
  REST,4, NOTE_DS5,4, REST,8, NOTE_D5,-4,
  NOTE_C5,2, REST,2,

  NOTE_C5,8, NOTE_C5,4, NOTE_C5,8, REST,8, NOTE_C5,8, NOTE_D5,4,//11
  NOTE_E5,8, NOTE_C5,4, NOTE_A4,8, NOTE_G4,2,

  NOTE_C5,8, NOTE_C5,4, NOTE_C5,8, REST,8, NOTE_C5,8, NOTE_D5,8, NOTE_E5,8,//13
  REST,1, 
  NOTE_C5,8, NOTE_C5,4, NOTE_C5,8, REST,8, NOTE_C5,8, NOTE_D5,4,
  NOTE_E5,8, NOTE_C5,4, NOTE_A4,8, NOTE_G4,2,
  NOTE_E5,8, NOTE_E5,8, REST,8, NOTE_E5,8, REST,8, NOTE_C5,8, NOTE_E5,4,
  NOTE_G5,4, REST,4, NOTE_G4,4, REST,4, 
  NOTE_C5,-4, NOTE_G4,8, REST,4, NOTE_E4,-4, // 19
  
  NOTE_A4,4, NOTE_B4,4, NOTE_AS4,8, NOTE_A4,4,
  NOTE_G4,-8, NOTE_E5,-8, NOTE_G5,-8, NOTE_A5,4, NOTE_F5,8, NOTE_G5,8,
  REST,8, NOTE_E5,4, NOTE_C5,8, NOTE_D5,8, NOTE_B4,-4,

  NOTE_C5,-4, NOTE_G4,8, REST,4, NOTE_E4,-4, // repeats from 19
  NOTE_A4,4, NOTE_B4,4, NOTE_AS4,8, NOTE_A4,4,
  NOTE_G4,-8, NOTE_E5,-8, NOTE_G5,-8, NOTE_A5,4, NOTE_F5,8, NOTE_G5,8,
  REST,8, NOTE_E5,4, NOTE_C5,8, NOTE_D5,8, NOTE_B4,-4,

  NOTE_E5,8, NOTE_C5,4, NOTE_G4,8, REST,4, NOTE_GS4,4,//23
  NOTE_A4,8, NOTE_F5,4, NOTE_F5,8, NOTE_A4,2,
  NOTE_D5,-8, NOTE_A5,-8, NOTE_A5,-8, NOTE_A5,-8, NOTE_G5,-8, NOTE_F5,-8,
  
  NOTE_E5,8, NOTE_C5,4, NOTE_A4,8, NOTE_G4,2, //26
  NOTE_E5,8, NOTE_C5,4, NOTE_G4,8, REST,4, NOTE_GS4,4,
  NOTE_A4,8, NOTE_F5,4, NOTE_F5,8, NOTE_A4,2,
  NOTE_B4,8, NOTE_F5,4, NOTE_F5,8, NOTE_F5,-8, NOTE_E5,-8, NOTE_D5,-8,
  NOTE_C5,8, NOTE_E4,4, NOTE_E4,8, NOTE_C4,2,

  NOTE_E5,8, NOTE_C5,4, NOTE_G4,8, REST,4, NOTE_GS4,4,//repeats from 23
  NOTE_A4,8, NOTE_F5,4, NOTE_F5,8, NOTE_A4,2,
  NOTE_D5,-8, NOTE_A5,-8, NOTE_A5,-8, NOTE_A5,-8, NOTE_G5,-8, NOTE_F5,-8,
  
  NOTE_E5,8, NOTE_C5,4, NOTE_A4,8, NOTE_G4,2, //26
  NOTE_E5,8, NOTE_C5,4, NOTE_G4,8, REST,4, NOTE_GS4,4,
  NOTE_A4,8, NOTE_F5,4, NOTE_F5,8, NOTE_A4,2,
  NOTE_B4,8, NOTE_F5,4, NOTE_F5,8, NOTE_F5,-8, NOTE_E5,-8, NOTE_D5,-8,
  NOTE_C5,8, NOTE_E4,4, NOTE_E4,8, NOTE_C4,2,
  NOTE_C5,8, NOTE_C5,4, NOTE_C5,8, REST,8, NOTE_C5,8, NOTE_D5,8, NOTE_E5,8,
  REST,1,

  NOTE_C5,8, NOTE_C5,4, NOTE_C5,8, REST,8, NOTE_C5,8, NOTE_D5,4, //33
  NOTE_E5,8, NOTE_C5,4, NOTE_A4,8, NOTE_G4,2,
  NOTE_E5,8, NOTE_E5,8, REST,8, NOTE_E5,8, REST,8, NOTE_C5,8, NOTE_E5,4,
  NOTE_G5,4, REST,4, NOTE_G4,4, REST,4, 
  NOTE_E5,8, NOTE_C5,4, NOTE_G4,8, REST,4, NOTE_GS4,4,
  NOTE_A4,8, NOTE_F5,4, NOTE_F5,8, NOTE_A4,2,
  NOTE_D5,-8, NOTE_A5,-8, NOTE_A5,-8, NOTE_A5,-8, NOTE_G5,-8, NOTE_F5,-8,
  
  NOTE_E5,8, NOTE_C5,4, NOTE_A4,8, NOTE_G4,2, //40
  NOTE_E5,8, NOTE_C5,4, NOTE_G4,8, REST,4, NOTE_GS4,4,
  NOTE_A4,8, NOTE_F5,4, NOTE_F5,8, NOTE_A4,2,
  NOTE_B4,8, NOTE_F5,4, NOTE_F5,8, NOTE_F5,-8, NOTE_E5,-8, NOTE_D5,-8,
  NOTE_C5,8, NOTE_E4,4, NOTE_E4,8, NOTE_C4,2,
  
  //game over sound
  NOTE_C5,-4, NOTE_G4,-4, NOTE_E4,4, //45
  NOTE_A4,-8, NOTE_B4,-8, NOTE_A4,-8, NOTE_GS4,-8, NOTE_AS4,-8, NOTE_GS4,-8,
  NOTE_G4,8, NOTE_D4,8, NOTE_E4,-2,  

};
  Melody m(200,melody,sizeof(melody)/sizeof(*melody)/2);
  m.play(buzzer,func);

}

void gameOfThroneMelody(int buzzer,bool *func()) {
  int melody[] = {

  // Game of Thrones
  // Score available at https://musescore.com/user/8407786/scores/2156716

  NOTE_G4,8, NOTE_C4,8, NOTE_DS4,16, NOTE_F4,16, NOTE_G4,8, NOTE_C4,8, NOTE_DS4,16, NOTE_F4,16, //1
  NOTE_G4,8, NOTE_C4,8, NOTE_DS4,16, NOTE_F4,16, NOTE_G4,8, NOTE_C4,8, NOTE_DS4,16, NOTE_F4,16,
  NOTE_G4,8, NOTE_C4,8, NOTE_E4,16, NOTE_F4,16, NOTE_G4,8, NOTE_C4,8, NOTE_E4,16, NOTE_F4,16,
  NOTE_G4,8, NOTE_C4,8, NOTE_E4,16, NOTE_F4,16, NOTE_G4,8, NOTE_C4,8, NOTE_E4,16, NOTE_F4,16,
  NOTE_G4,-4, NOTE_C4,-4,//5

  NOTE_DS4,16, NOTE_F4,16, NOTE_G4,4, NOTE_C4,4, NOTE_DS4,16, NOTE_F4,16, //6
  NOTE_D4,-1, //7 and 8
  NOTE_F4,-4, NOTE_AS3,-4,
  NOTE_DS4,16, NOTE_D4,16, NOTE_F4,4, NOTE_AS3,-4,
  NOTE_DS4,16, NOTE_D4,16, NOTE_C4,-1, //11 and 12

  //repeats from 5
  NOTE_G4,-4, NOTE_C4,-4,//5

  NOTE_DS4,16, NOTE_F4,16, NOTE_G4,4, NOTE_C4,4, NOTE_DS4,16, NOTE_F4,16, //6
  NOTE_D4,-1, //7 and 8
  NOTE_F4,-4, NOTE_AS3,-4,
  NOTE_DS4,16, NOTE_D4,16, NOTE_F4,4, NOTE_AS3,-4,
  NOTE_DS4,16, NOTE_D4,16, NOTE_C4,-1, //11 and 12
  NOTE_G4,-4, NOTE_C4,-4,
  NOTE_DS4,16, NOTE_F4,16, NOTE_G4,4,  NOTE_C4,4, NOTE_DS4,16, NOTE_F4,16,

  NOTE_D4,-2,//15
  NOTE_F4,-4, NOTE_AS3,-4,
  NOTE_D4,-8, NOTE_DS4,-8, NOTE_D4,-8, NOTE_AS3,-8,
  NOTE_C4,-1,
  NOTE_C5,-2,
  NOTE_AS4,-2,
  NOTE_C4,-2,
  NOTE_G4,-2,
  NOTE_DS4,-2,
  NOTE_DS4,-4, NOTE_F4,-4, 
  NOTE_G4,-1,
  
  NOTE_C5,-2,//28
  NOTE_AS4,-2,
  NOTE_C4,-2,
  NOTE_G4,-2, 
  NOTE_DS4,-2,
  NOTE_DS4,-4, NOTE_D4,-4,
  NOTE_C5,8, NOTE_G4,8, NOTE_GS4,16, NOTE_AS4,16, NOTE_C5,8, NOTE_G4,8, NOTE_GS4,16, NOTE_AS4,16,
  NOTE_C5,8, NOTE_G4,8, NOTE_GS4,16, NOTE_AS4,16, NOTE_C5,8, NOTE_G4,8, NOTE_GS4,16, NOTE_AS4,16,
  
  REST,4, NOTE_GS5,16, NOTE_AS5,16, NOTE_C6,8, NOTE_G5,8, NOTE_GS5,16, NOTE_AS5,16,
  NOTE_C6,8, NOTE_G5,16, NOTE_GS5,16, NOTE_AS5,16, NOTE_C6,8, NOTE_G5,8, NOTE_GS5,16, NOTE_AS5,16,  
};
  Melody m(85,melody,sizeof(melody)/sizeof(*melody)/2);
  m.play(buzzer,func);
}

void nokiaMelody(int buzzer,bool (*func)()) {
  int melody[] = {

  // Nokia Ringtone 
  // Score available at https://musescore.com/user/29944637/scores/5266155
  
  NOTE_E5, 8, NOTE_D5, 8, NOTE_FS4, 4, NOTE_GS4, 4, 
  NOTE_CS5, 8, NOTE_B4, 8, NOTE_D4, 4, NOTE_E4, 4, 
  NOTE_B4, 8, NOTE_A4, 8, NOTE_CS4, 4, NOTE_E4, 4,
  NOTE_A4, 2, 
};
  Melody m(180,melody,sizeof(melody)/sizeof(*melody)/2);
  m.play(buzzer,func);
}

void doomMelody(int buzzer,bool *func()) {
  int melody[] = {

  // At Doom's Gate (E1M1)
  // Score available at https://musescore.com/pieridot/doom

  NOTE_E2, 8, NOTE_E2, 8, NOTE_E3, 8, NOTE_E2, 8, NOTE_E2, 8, NOTE_D3, 8, NOTE_E2, 8, NOTE_E2, 8, //1
  NOTE_C3, 8, NOTE_E2, 8, NOTE_E2, 8, NOTE_AS2, 8, NOTE_E2, 8, NOTE_E2, 8, NOTE_B2, 8, NOTE_C3, 8,
  NOTE_E2, 8, NOTE_E2, 8, NOTE_E3, 8, NOTE_E2, 8, NOTE_E2, 8, NOTE_D3, 8, NOTE_E2, 8, NOTE_E2, 8,
  NOTE_C3, 8, NOTE_E2, 8, NOTE_E2, 8, NOTE_AS2, -2,

  NOTE_E2, 8, NOTE_E2, 8, NOTE_E3, 8, NOTE_E2, 8, NOTE_E2, 8, NOTE_D3, 8, NOTE_E2, 8, NOTE_E2, 8, //5
  NOTE_C3, 8, NOTE_E2, 8, NOTE_E2, 8, NOTE_AS2, 8, NOTE_E2, 8, NOTE_E2, 8, NOTE_B2, 8, NOTE_C3, 8,
  NOTE_E2, 8, NOTE_E2, 8, NOTE_E3, 8, NOTE_E2, 8, NOTE_E2, 8, NOTE_D3, 8, NOTE_E2, 8, NOTE_E2, 8,
  NOTE_C3, 8, NOTE_E2, 8, NOTE_E2, 8, NOTE_AS2, -2,

  NOTE_E2, 8, NOTE_E2, 8, NOTE_E3, 8, NOTE_E2, 8, NOTE_E2, 8, NOTE_D3, 8, NOTE_E2, 8, NOTE_E2, 8, //9
  NOTE_C3, 8, NOTE_E2, 8, NOTE_E2, 8, NOTE_AS2, 8, NOTE_E2, 8, NOTE_E2, 8, NOTE_B2, 8, NOTE_C3, 8,
  NOTE_E2, 8, NOTE_E2, 8, NOTE_E3, 8, NOTE_E2, 8, NOTE_E2, 8, NOTE_D3, 8, NOTE_E2, 8, NOTE_E2, 8,
  NOTE_C3, 8, NOTE_E2, 8, NOTE_E2, 8, NOTE_AS2, -2,

  NOTE_E2, 8, NOTE_E2, 8, NOTE_E3, 8, NOTE_E2, 8, NOTE_E2, 8, NOTE_D3, 8, NOTE_E2, 8, NOTE_E2, 8, //13
  NOTE_C3, 8, NOTE_E2, 8, NOTE_E2, 8, NOTE_AS2, 8, NOTE_E2, 8, NOTE_E2, 8, NOTE_B2, 8, NOTE_C3, 8,
  NOTE_E2, 8, NOTE_E2, 8, NOTE_E3, 8, NOTE_E2, 8, NOTE_E2, 8, NOTE_D3, 8, NOTE_E2, 8, NOTE_E2, 8,
  NOTE_FS3, -16, NOTE_D3, -16, NOTE_B2, -16, NOTE_A3, -16, NOTE_FS3, -16, NOTE_B2, -16, NOTE_D3, -16, NOTE_FS3, -16, NOTE_A3, -16, NOTE_FS3, -16, NOTE_D3, -16, NOTE_B2, -16,

  NOTE_E2, 8, NOTE_E2, 8, NOTE_E3, 8, NOTE_E2, 8, NOTE_E2, 8, NOTE_D3, 8, NOTE_E2, 8, NOTE_E2, 8, //17
  NOTE_C3, 8, NOTE_E2, 8, NOTE_E2, 8, NOTE_AS2, 8, NOTE_E2, 8, NOTE_E2, 8, NOTE_B2, 8, NOTE_C3, 8,
  NOTE_E2, 8, NOTE_E2, 8, NOTE_E3, 8, NOTE_E2, 8, NOTE_E2, 8, NOTE_D3, 8, NOTE_E2, 8, NOTE_E2, 8,
  NOTE_C3, 8, NOTE_E2, 8, NOTE_E2, 8, NOTE_AS2, -2,

  NOTE_E2, 8, NOTE_E2, 8, NOTE_E3, 8, NOTE_E2, 8, NOTE_E2, 8, NOTE_D3, 8, NOTE_E2, 8, NOTE_E2, 8, //21
  NOTE_C3, 8, NOTE_E2, 8, NOTE_E2, 8, NOTE_AS2, 8, NOTE_E2, 8, NOTE_E2, 8, NOTE_B2, 8, NOTE_C3, 8,
  NOTE_E2, 8, NOTE_E2, 8, NOTE_E3, 8, NOTE_E2, 8, NOTE_E2, 8, NOTE_D3, 8, NOTE_E2, 8, NOTE_E2, 8,
  NOTE_B3, -16, NOTE_G3, -16, NOTE_E3, -16, NOTE_G3, -16, NOTE_B3, -16, NOTE_E4, -16, NOTE_G3, -16, NOTE_B3, -16, NOTE_E4, -16, NOTE_B3, -16, NOTE_G4, -16, NOTE_B4, -16,

  NOTE_A2, 8, NOTE_A2, 8, NOTE_A3, 8, NOTE_A2, 8, NOTE_A2, 8, NOTE_G3, 8, NOTE_A2, 8, NOTE_A2, 8, //25
  NOTE_F3, 8, NOTE_A2, 8, NOTE_A2, 8, NOTE_DS3, 8, NOTE_A2, 8, NOTE_A2, 8, NOTE_E3, 8, NOTE_F3, 8,
  NOTE_A2, 8, NOTE_A2, 8, NOTE_A3, 8, NOTE_A2, 8, NOTE_A2, 8, NOTE_G3, 8, NOTE_A2, 8, NOTE_A2, 8,
  NOTE_F3, 8, NOTE_A2, 8, NOTE_A2, 8, NOTE_DS3, -2,

  NOTE_A2, 8, NOTE_A2, 8, NOTE_A3, 8, NOTE_A2, 8, NOTE_A2, 8, NOTE_G3, 8, NOTE_A2, 8, NOTE_A2, 8, //29
  NOTE_F3, 8, NOTE_A2, 8, NOTE_A2, 8, NOTE_DS3, 8, NOTE_A2, 8, NOTE_A2, 8, NOTE_E3, 8, NOTE_F3, 8,
  NOTE_A2, 8, NOTE_A2, 8, NOTE_A3, 8, NOTE_A2, 8, NOTE_A2, 8, NOTE_G3, 8, NOTE_A2, 8, NOTE_A2, 8,
  NOTE_A3, -16, NOTE_F3, -16, NOTE_D3, -16, NOTE_A3, -16, NOTE_F3, -16, NOTE_D3, -16, NOTE_C4, -16, NOTE_A3, -16, NOTE_F3, -16, NOTE_A3, -16, NOTE_F3, -16, NOTE_D3, -16,

  NOTE_E2, 8, NOTE_E2, 8, NOTE_E3, 8, NOTE_E2, 8, NOTE_E2, 8, NOTE_D3, 8, NOTE_E2, 8, NOTE_E2, 8, //33
  NOTE_C3, 8, NOTE_E2, 8, NOTE_E2, 8, NOTE_AS2, 8, NOTE_E2, 8, NOTE_E2, 8, NOTE_B2, 8, NOTE_C3, 8,
  NOTE_E2, 8, NOTE_E2, 8, NOTE_E3, 8, NOTE_E2, 8, NOTE_E2, 8, NOTE_D3, 8, NOTE_E2, 8, NOTE_E2, 8,
  NOTE_C3, 8, NOTE_E2, 8, NOTE_E2, 8, NOTE_AS2, -2,

  NOTE_E2, 8, NOTE_E2, 8, NOTE_E3, 8, NOTE_E2, 8, NOTE_E2, 8, NOTE_D3, 8, NOTE_E2, 8, NOTE_E2, 8, //37
  NOTE_C3, 8, NOTE_E2, 8, NOTE_E2, 8, NOTE_AS2, 8, NOTE_E2, 8, NOTE_E2, 8, NOTE_B2, 8, NOTE_C3, 8,
  NOTE_E2, 8, NOTE_E2, 8, NOTE_E3, 8, NOTE_E2, 8, NOTE_E2, 8, NOTE_D3, 8, NOTE_E2, 8, NOTE_E2, 8,
  NOTE_C3, 8, NOTE_E2, 8, NOTE_E2, 8, NOTE_AS2, -2,

  NOTE_CS3, 8, NOTE_CS3, 8, NOTE_CS4, 8, NOTE_CS3, 8, NOTE_CS3, 8, NOTE_B3, 8, NOTE_CS3, 8, NOTE_CS3, 8, //41
  NOTE_A3, 8, NOTE_CS3, 8, NOTE_CS3, 8, NOTE_G3, 8, NOTE_CS3, 8, NOTE_CS3, 8, NOTE_GS3, 8, NOTE_A3, 8,
  NOTE_B2, 8, NOTE_B2, 8, NOTE_B3, 8, NOTE_B2, 8, NOTE_B2, 8, NOTE_A3, 8, NOTE_B2, 8, NOTE_B2, 8,
  NOTE_G3, 8, NOTE_B2, 8, NOTE_B2, 8, NOTE_F3, -2,

  NOTE_E2, 8, NOTE_E2, 8, NOTE_E3, 8, NOTE_E2, 8, NOTE_E2, 8, NOTE_D3, 8, NOTE_E2, 8, NOTE_E2, 8, //45
  NOTE_C3, 8, NOTE_E2, 8, NOTE_E2, 8, NOTE_AS2, 8, NOTE_E2, 8, NOTE_E2, 8, NOTE_B2, 8, NOTE_C3, 8,
  NOTE_E2, 8, NOTE_E2, 8, NOTE_E3, 8, NOTE_E2, 8, NOTE_E2, 8, NOTE_D3, 8, NOTE_E2, 8, NOTE_E2, 8,
  NOTE_B3, -16, NOTE_G3, -16, NOTE_E3, -16, NOTE_G3, -16, NOTE_B3, -16, NOTE_E4, -16, NOTE_G3, -16, NOTE_B3, -16, NOTE_E4, -16, NOTE_B3, -16, NOTE_G4, -16, NOTE_B4, -16,

  NOTE_E2, 8, NOTE_E2, 8, NOTE_E3, 8, NOTE_E2, 8, NOTE_E2, 8, NOTE_D3, 8, NOTE_E2, 8, NOTE_E2, 8, //49
  NOTE_C3, 8, NOTE_E2, 8, NOTE_E2, 8, NOTE_AS2, 8, NOTE_E2, 8, NOTE_E2, 8, NOTE_B2, 8, NOTE_C3, 8,
  NOTE_E2, 8, NOTE_E2, 8, NOTE_E3, 8, NOTE_E2, 8, NOTE_E2, 8, NOTE_D3, 8, NOTE_E2, 8, NOTE_E2, 8,
  NOTE_C3, 8, NOTE_E2, 8, NOTE_E2, 8, NOTE_AS2, -2,

  NOTE_E2, 8, NOTE_E2, 8, NOTE_E3, 8, NOTE_E2, 8, NOTE_E2, 8, NOTE_D3, 8, NOTE_E2, 8, NOTE_E2, 8, //53
  NOTE_C3, 8, NOTE_E2, 8, NOTE_E2, 8, NOTE_AS2, 8, NOTE_E2, 8, NOTE_E2, 8, NOTE_B2, 8, NOTE_C3, 8,
  NOTE_E2, 8, NOTE_E2, 8, NOTE_E3, 8, NOTE_E2, 8, NOTE_E2, 8, NOTE_D3, 8, NOTE_E2, 8, NOTE_E2, 8,
  NOTE_FS3, -16, NOTE_DS3, -16, NOTE_B2, -16, NOTE_FS3, -16, NOTE_DS3, -16, NOTE_B2, -16, NOTE_G3, -16, NOTE_D3, -16, NOTE_B2, -16, NOTE_DS4, -16, NOTE_DS3, -16, NOTE_B2, -16,

// -/-

  NOTE_E2, 8, NOTE_E2, 8, NOTE_E3, 8, NOTE_E2, 8, NOTE_E2, 8, NOTE_D3, 8, NOTE_E2, 8, NOTE_E2, 8, //57
  NOTE_C3, 8, NOTE_E2, 8, NOTE_E2, 8, NOTE_AS2, 8, NOTE_E2, 8, NOTE_E2, 8, NOTE_B2, 8, NOTE_C3, 8,
  NOTE_E2, 8, NOTE_E2, 8, NOTE_E3, 8, NOTE_E2, 8, NOTE_E2, 8, NOTE_D3, 8, NOTE_E2, 8, NOTE_E2, 8,
  NOTE_C3, 8, NOTE_E2, 8, NOTE_E2, 8, NOTE_AS2, -2,

  NOTE_E2, 8, NOTE_E2, 8, NOTE_E3, 8, NOTE_E2, 8, NOTE_E2, 8, NOTE_D3, 8, NOTE_E2, 8, NOTE_E2, 8, //61
  NOTE_C3, 8, NOTE_E2, 8, NOTE_E2, 8, NOTE_AS2, 8, NOTE_E2, 8, NOTE_E2, 8, NOTE_B2, 8, NOTE_C3, 8,
  NOTE_E2, 8, NOTE_E2, 8, NOTE_E3, 8, NOTE_E2, 8, NOTE_E2, 8, NOTE_D3, 8, NOTE_E2, 8, NOTE_E2, 8,
  NOTE_E4, -16, NOTE_B3, -16, NOTE_G3, -16, NOTE_G4, -16, NOTE_E4, -16, NOTE_G3, -16, NOTE_B3, -16, NOTE_D4, -16, NOTE_E4, -16, NOTE_G4, -16, NOTE_E4, -16, NOTE_G3, -16,  

  NOTE_E2, 8, NOTE_E2, 8, NOTE_E3, 8, NOTE_E2, 8, NOTE_E2, 8, NOTE_D3, 8, NOTE_E2, 8, NOTE_E2, 8, //65
  NOTE_C3, 8, NOTE_E2, 8, NOTE_E2, 8, NOTE_AS2, 8, NOTE_E2, 8, NOTE_E2, 8, NOTE_B2, 8, NOTE_C3, 8,
  NOTE_E2, 8, NOTE_E2, 8, NOTE_E3, 8, NOTE_E2, 8, NOTE_E2, 8, NOTE_D3, 8, NOTE_E2, 8, NOTE_E2, 8,
  NOTE_C3, 8, NOTE_E2, 8, NOTE_E2, 8, NOTE_AS2, -2,

  NOTE_A2, 8, NOTE_A2, 8, NOTE_A3, 8, NOTE_A2, 8, NOTE_A2, 8, NOTE_G3, 8, NOTE_A2, 8, NOTE_A2, 8, //69
  NOTE_F3, 8, NOTE_A2, 8, NOTE_A2, 8, NOTE_DS3, 8, NOTE_A2, 8, NOTE_A2, 8, NOTE_E3, 8, NOTE_F3, 8,
  NOTE_A2, 8, NOTE_A2, 8, NOTE_A3, 8, NOTE_A2, 8, NOTE_A2, 8, NOTE_G3, 8, NOTE_A2, 8, NOTE_A2, 8,
  NOTE_A3, -16, NOTE_F3, -16, NOTE_D3, -16, NOTE_A3, -16, NOTE_F3, -16, NOTE_D3, -16, NOTE_C4, -16, NOTE_A3, -16, NOTE_F3, -16, NOTE_A3, -16, NOTE_F3, -16, NOTE_D3, -16,

  NOTE_E2, 8, NOTE_E2, 8, NOTE_E3, 8, NOTE_E2, 8, NOTE_E2, 8, NOTE_D3, 8, NOTE_E2, 8, NOTE_E2, 8, //73
  NOTE_C3, 8, NOTE_E2, 8, NOTE_E2, 8, NOTE_AS2, 8, NOTE_E2, 8, NOTE_E2, 8, NOTE_B2, 8, NOTE_C3, 8,
  NOTE_E2, 8, NOTE_E2, 8, NOTE_E3, 8, NOTE_E2, 8, NOTE_E2, 8, NOTE_D3, 8, NOTE_E2, 8, NOTE_E2, 8,
  NOTE_C3, 8, NOTE_E2, 8, NOTE_E2, 8, NOTE_AS2, -2,

  NOTE_E2, 8, NOTE_E2, 8, NOTE_E3, 8, NOTE_E2, 8, NOTE_E2, 8, NOTE_D3, 8, NOTE_E2, 8, NOTE_E2, 8, //77
  NOTE_C3, 8, NOTE_E2, 8, NOTE_E2, 8, NOTE_AS2, 8, NOTE_E2, 8, NOTE_E2, 8, NOTE_B2, 8, NOTE_C3, 8,
  NOTE_E2, 8, NOTE_E2, 8, NOTE_E3, 8, NOTE_E2, 8, NOTE_E2, 8, NOTE_D3, 8, NOTE_E2, 8, NOTE_E2, 8,
  NOTE_C3, 8, NOTE_E2, 8, NOTE_E2, 8, NOTE_AS2, -2,

  NOTE_E2, 8, NOTE_E2, 8, NOTE_E3, 8, NOTE_E2, 8, NOTE_E2, 8, NOTE_D3, 8, NOTE_E2, 8, NOTE_E2, 8, //81
  NOTE_C3, 8, NOTE_E2, 8, NOTE_E2, 8, NOTE_AS2, 8, NOTE_E2, 8, NOTE_E2, 8, NOTE_B2, 8, NOTE_C3, 8,
  NOTE_E2, 8, NOTE_E2, 8, NOTE_E3, 8, NOTE_E2, 8, NOTE_E2, 8, NOTE_D3, 8, NOTE_E2, 8, NOTE_E2, 8,
  NOTE_C3, 8, NOTE_E2, 8, NOTE_E2, 8, NOTE_AS2, -2,

  NOTE_E2, 8, NOTE_E2, 8, NOTE_E3, 8, NOTE_E2, 8, NOTE_E2, 8, NOTE_D3, 8, NOTE_E2, 8, NOTE_E2, 8, //73
  NOTE_C3, 8, NOTE_E2, 8, NOTE_E2, 8, NOTE_AS2, 8, NOTE_E2, 8, NOTE_E2, 8, NOTE_B2, 8, NOTE_C3, 8,
  NOTE_E2, 8, NOTE_E2, 8, NOTE_E3, 8, NOTE_E2, 8, NOTE_E2, 8, NOTE_D3, 8, NOTE_E2, 8, NOTE_E2, 8,
  NOTE_B3, -16, NOTE_G3, -16, NOTE_E3, -16, NOTE_B2, -16, NOTE_E3, -16, NOTE_G3, -16, NOTE_C4, -16, NOTE_B3, -16, NOTE_G3, -16, NOTE_B3, -16, NOTE_G3, -16, NOTE_E3, -16,  
};

  Melody m(225,melody,sizeof(melody)/sizeof(*melody)/2);
  m.play(buzzer,func);
}
void greenHillMelody(int buzzer,bool *func()) {
  // notes of the moledy followed by the duration.
// a 4 means a quarter note, 8 an eighteenth , 16 sixteenth, so on
// !!negative numbers are used to represent dotted notes,
// so -4 means a dotted quarter note, that is, a quarter plus an eighteenth!!
int melody[] = {

  // Gren Hill Zone - Sonic the Hedgehog
  // Score available at https://musescore.com/user/248346/scores/461661
  // Theme by Masato Nakamura, arranged by Teddy Mason
  
  REST,2, NOTE_D5,8, NOTE_B4,4, NOTE_D5,8, //1
  NOTE_CS5,4, NOTE_D5,8, NOTE_CS5,4, NOTE_A4,2, 
  REST,8, NOTE_A4,8, NOTE_FS5,8, NOTE_E5,4, NOTE_D5,8,
  NOTE_CS5,4, NOTE_D5,8, NOTE_CS5,4, NOTE_A4,2, 
  REST,4, NOTE_D5,8, NOTE_B4,4, NOTE_D5,8,
  NOTE_CS5,4, NOTE_D5,8, NOTE_CS5,4, NOTE_A4,2, 

  REST,8, NOTE_B4,8, NOTE_B4,8, NOTE_G4,4, NOTE_B4,8, //7
  NOTE_A4,4, NOTE_B4,8, NOTE_A4,4, NOTE_D4,2,
  REST,4, NOTE_D5,8, NOTE_B4,4, NOTE_D5,8,
  NOTE_CS5,4, NOTE_D5,8, NOTE_CS5,4, NOTE_A4,2, 
  REST,8, NOTE_A4,8, NOTE_FS5,8, NOTE_E5,4, NOTE_D5,8,
  NOTE_CS5,4, NOTE_D5,8, NOTE_CS5,4, NOTE_A4,2, 

  REST,4, NOTE_D5,8, NOTE_B4,4, NOTE_D5,8, //13
  NOTE_CS5,4, NOTE_D5,8, NOTE_CS5,4, NOTE_A4,2, 
  REST,8, NOTE_B4,8, NOTE_B4,8, NOTE_G4,4, NOTE_B4,8,
  NOTE_A4,4, NOTE_B4,8, NOTE_A4,4, NOTE_D4,8, NOTE_D4,8, NOTE_FS4,8,
  NOTE_E4,-1,
  REST,8, NOTE_D4,8, NOTE_E4,8, NOTE_FS4,-1,

  REST,8, NOTE_D4,8, NOTE_D4,8, NOTE_FS4,8, NOTE_F4,-1, //20
  REST,8, NOTE_D4,8, NOTE_F4,8, NOTE_E4,-1, //end 1

  //repeats from 1

  REST,2, NOTE_D5,8, NOTE_B4,4, NOTE_D5,8, //1
  NOTE_CS5,4, NOTE_D5,8, NOTE_CS5,4, NOTE_A4,2, 
  REST,8, NOTE_A4,8, NOTE_FS5,8, NOTE_E5,4, NOTE_D5,8,
  NOTE_CS5,4, NOTE_D5,8, NOTE_CS5,4, NOTE_A4,2, 
  REST,4, NOTE_D5,8, NOTE_B4,4, NOTE_D5,8,
  NOTE_CS5,4, NOTE_D5,8, NOTE_CS5,4, NOTE_A4,2, 

  REST,8, NOTE_B4,8, NOTE_B4,8, NOTE_G4,4, NOTE_B4,8, //7
  NOTE_A4,4, NOTE_B4,8, NOTE_A4,4, NOTE_D4,2,
  REST,4, NOTE_D5,8, NOTE_B4,4, NOTE_D5,8,
  NOTE_CS5,4, NOTE_D5,8, NOTE_CS5,4, NOTE_A4,2, 
  REST,8, NOTE_A4,8, NOTE_FS5,8, NOTE_E5,4, NOTE_D5,8,
  NOTE_CS5,4, NOTE_D5,8, NOTE_CS5,4, NOTE_A4,2, 

  REST,4, NOTE_D5,8, NOTE_B4,4, NOTE_D5,8, //13
  NOTE_CS5,4, NOTE_D5,8, NOTE_CS5,4, NOTE_A4,2, 
  REST,8, NOTE_B4,8, NOTE_B4,8, NOTE_G4,4, NOTE_B4,8,
  NOTE_A4,4, NOTE_B4,8, NOTE_A4,4, NOTE_D4,8, NOTE_D4,8, NOTE_FS4,8,
  NOTE_E4,-1,
  REST,8, NOTE_D4,8, NOTE_E4,8, NOTE_FS4,-1,

  REST,8, NOTE_D4,8, NOTE_D4,8, NOTE_FS4,8, NOTE_F4,-1, //20
  REST,8, NOTE_D4,8, NOTE_F4,8, NOTE_E4,8, //end 2
  NOTE_E4,-2, NOTE_A4,8, NOTE_CS5,8, 
  NOTE_FS5,8, NOTE_E5,4, NOTE_D5,8, NOTE_A5,-4,

};
  Melody m(140,melody,sizeof(melody)/sizeof(*melody)/2);
  m.play(buzzer,func);
}
void jigglypuffsongMelody(int buzzer,bool *func()) {
  // notes of the moledy followed by the duration.
// a 4 means a quarter note, 8 an eighteenth , 16 sixteenth, so on
// !!negative numbers are used to represent dotted notes,
// so -4 means a dotted quarter note, that is, a quarter plus an eighteenth!!
int melody[] = {

  // Jigglypuff's Song
  // Score available at https://musescore.com/user/28109683/scores/5044153
  
  NOTE_D5,-4, NOTE_A5,8, NOTE_FS5,8, NOTE_D5,8,
  NOTE_E5,-4, NOTE_FS5,8, NOTE_G5,4,
  NOTE_FS5,-4, NOTE_E5,8, NOTE_FS5,4,
  NOTE_D5,-2,
  NOTE_D5,-4, NOTE_A5,8, NOTE_FS5,8, NOTE_D5,8,
  NOTE_E5,-4, NOTE_FS5,8, NOTE_G5,4,
  NOTE_FS5,-1,
  NOTE_D5,-4, NOTE_A5,8, NOTE_FS5,8, NOTE_D5,8,
  NOTE_E5,-4, NOTE_FS5,8, NOTE_G5,4,
  
  NOTE_FS5,-4, NOTE_E5,8, NOTE_FS5,4,
  NOTE_D5,-2,
  NOTE_D5,-4, NOTE_A5,8, NOTE_FS5,8, NOTE_D5,8,
  NOTE_E5,-4, NOTE_FS5,8, NOTE_G5,4,
  NOTE_FS5,-1,
  
};
Melody m(85,melody,sizeof(melody)/sizeof(*melody)/2);
m.play(buzzer,func);
}
void nevergonnagiveyouupMelody(int buzzer,bool *func()) {
  // notes of the moledy followed by the duration.
// a 4 means a quarter note, 8 an eighteenth , 16 sixteenth, so on
// !!negative numbers are used to represent dotted notes,
// so -4 means a dotted quarter note, that is, a quarter plus an eighteenth!!
int melody[] = {

  // Never Gonna Give You Up - Rick Astley
  // Score available at https://musescore.com/chlorondria_5/never-gonna-give-you-up_alto-sax
  // Arranged by Chlorondria

  NOTE_D5,-4, NOTE_E5,-4, NOTE_A4,4, //1
  NOTE_E5,-4, NOTE_FS5,-4, NOTE_A5,16, NOTE_G5,16, NOTE_FS5,8,
  NOTE_D5,-4, NOTE_E5,-4, NOTE_A4,2,
  NOTE_A4,16, NOTE_A4,16, NOTE_B4,16, NOTE_D5,8, NOTE_D5,16,
  NOTE_D5,-4, NOTE_E5,-4, NOTE_A4,4, //repeat from 1
  NOTE_E5,-4, NOTE_FS5,-4, NOTE_A5,16, NOTE_G5,16, NOTE_FS5,8,
  NOTE_D5,-4, NOTE_E5,-4, NOTE_A4,2,
  NOTE_A4,16, NOTE_A4,16, NOTE_B4,16, NOTE_D5,8, NOTE_D5,16,
  REST,4, NOTE_B4,8, NOTE_CS5,8, NOTE_D5,8, NOTE_D5,8, NOTE_E5,8, NOTE_CS5,-8,
  NOTE_B4,16, NOTE_A4,2, REST,4, 

  REST,8, NOTE_B4,8, NOTE_B4,8, NOTE_CS5,8, NOTE_D5,8, NOTE_B4,4, NOTE_A4,8, //7
  NOTE_A5,8, REST,8, NOTE_A5,8, NOTE_E5,-4, REST,4, 
  NOTE_B4,8, NOTE_B4,8, NOTE_CS5,8, NOTE_D5,8, NOTE_B4,8, NOTE_D5,8, NOTE_E5,8, REST,8,
  REST,8, NOTE_CS5,8, NOTE_B4,8, NOTE_A4,-4, REST,4,
  REST,8, NOTE_B4,8, NOTE_B4,8, NOTE_CS5,8, NOTE_D5,8, NOTE_B4,8, NOTE_A4,4,
  NOTE_E5,8, NOTE_E5,8, NOTE_E5,8, NOTE_FS5,8, NOTE_E5,4, REST,4,
   
  NOTE_D5,2, NOTE_E5,8, NOTE_FS5,8, NOTE_D5,8, //13
  NOTE_E5,8, NOTE_E5,8, NOTE_E5,8, NOTE_FS5,8, NOTE_E5,4, NOTE_A4,4,
  REST,2, NOTE_B4,8, NOTE_CS5,8, NOTE_D5,8, NOTE_B4,8,
  REST,8, NOTE_E5,8, NOTE_FS5,8, NOTE_E5,-4, NOTE_A4,16, NOTE_B4,16, NOTE_D5,16, NOTE_B4,16,
  NOTE_FS5,-8, NOTE_FS5,-8, NOTE_E5,-4, NOTE_A4,16, NOTE_B4,16, NOTE_D5,16, NOTE_B4,16,

  NOTE_E5,-8, NOTE_E5,-8, NOTE_D5,-8, NOTE_CS5,16, NOTE_B4,-8, NOTE_A4,16, NOTE_B4,16, NOTE_D5,16, NOTE_B4,16, //18
  NOTE_D5,4, NOTE_E5,8, NOTE_CS5,-8, NOTE_B4,16, NOTE_A4,8, NOTE_A4,8, NOTE_A4,8, 
  NOTE_E5,4, NOTE_D5,2, NOTE_A4,16, NOTE_B4,16, NOTE_D5,16, NOTE_B4,16,
  NOTE_FS5,-8, NOTE_FS5,-8, NOTE_E5,-4, NOTE_A4,16, NOTE_B4,16, NOTE_D5,16, NOTE_B4,16,
  NOTE_A5,4, NOTE_CS5,8, NOTE_D5,-8, NOTE_CS5,16, NOTE_B4,8, NOTE_A4,16, NOTE_B4,16, NOTE_D5,16, NOTE_B4,16,

  NOTE_D5,4, NOTE_E5,8, NOTE_CS5,-8, NOTE_B4,16, NOTE_A4,4, NOTE_A4,8,  //23
  NOTE_E5,4, NOTE_D5,2, REST,4,
  REST,8, NOTE_B4,8, NOTE_D5,8, NOTE_B4,8, NOTE_D5,8, NOTE_E5,4, REST,8,
  REST,8, NOTE_CS5,8, NOTE_B4,8, NOTE_A4,-4, REST,4,
  REST,8, NOTE_B4,8, NOTE_B4,8, NOTE_CS5,8, NOTE_D5,8, NOTE_B4,8, NOTE_A4,4,
  REST,8, NOTE_A5,8, NOTE_A5,8, NOTE_E5,8, NOTE_FS5,8, NOTE_E5,8, NOTE_D5,8,
  
  REST,8, NOTE_A4,8, NOTE_B4,8, NOTE_CS5,8, NOTE_D5,8, NOTE_B4,8, //29
  REST,8, NOTE_CS5,8, NOTE_B4,8, NOTE_A4,-4, REST,4,
  NOTE_B4,8, NOTE_B4,8, NOTE_CS5,8, NOTE_D5,8, NOTE_B4,8, NOTE_A4,4, REST,8,
  REST,8, NOTE_E5,8, NOTE_E5,8, NOTE_FS5,4, NOTE_E5,-4, 
  NOTE_D5,2, NOTE_D5,8, NOTE_E5,8, NOTE_FS5,8, NOTE_E5,4, 
  NOTE_E5,8, NOTE_E5,8, NOTE_FS5,8, NOTE_E5,8, NOTE_A4,8, NOTE_A4,4,

  REST,-4, NOTE_A4,8, NOTE_B4,8, NOTE_CS5,8, NOTE_D5,8, NOTE_B4,8, //35
  REST,8, NOTE_E5,8, NOTE_FS5,8, NOTE_E5,-4, NOTE_A4,16, NOTE_B4,16, NOTE_D5,16, NOTE_B4,16,
  NOTE_FS5,-8, NOTE_FS5,-8, NOTE_E5,-4, NOTE_A4,16, NOTE_B4,16, NOTE_D5,16, NOTE_B4,16,
  NOTE_E5,-8, NOTE_E5,-8, NOTE_D5,-8, NOTE_CS5,16, NOTE_B4,8, NOTE_A4,16, NOTE_B4,16, NOTE_D5,16, NOTE_B4,16,
  NOTE_D5,4, NOTE_E5,8, NOTE_CS5,-8, NOTE_B4,16, NOTE_A4,4, NOTE_A4,8, 

   NOTE_E5,4, NOTE_D5,2, NOTE_A4,16, NOTE_B4,16, NOTE_D5,16, NOTE_B4,16, //40
  NOTE_FS5,-8, NOTE_FS5,-8, NOTE_E5,-4, NOTE_A4,16, NOTE_B4,16, NOTE_D5,16, NOTE_B4,16,
  NOTE_A5,4, NOTE_CS5,8, NOTE_D5,-8, NOTE_CS5,16, NOTE_B4,8, NOTE_A4,16, NOTE_B4,16, NOTE_D5,16, NOTE_B4,16,
  NOTE_D5,4, NOTE_E5,8, NOTE_CS5,-8, NOTE_B4,16, NOTE_A4,4, NOTE_A4,8,  
  NOTE_E5,4, NOTE_D5,2, NOTE_A4,16, NOTE_B4,16, NOTE_D5,16, NOTE_B4,16,
   
  NOTE_FS5,-8, NOTE_FS5,-8, NOTE_E5,-4, NOTE_A4,16, NOTE_B4,16, NOTE_D5,16, NOTE_B4,16, //45
  NOTE_A5,4, NOTE_CS5,8, NOTE_D5,-8, NOTE_CS5,16, NOTE_B4,8, NOTE_A4,16, NOTE_B4,16, NOTE_D5,16, NOTE_B4,16,
  NOTE_D5,4, NOTE_E5,8, NOTE_CS5,-8, NOTE_B4,16, NOTE_A4,4, NOTE_A4,8,  
  NOTE_E5,4, NOTE_D5,2, NOTE_A4,16, NOTE_B4,16, NOTE_D5,16, NOTE_B4,16,
  NOTE_FS5,-8, NOTE_FS5,-8, NOTE_E5,-4, NOTE_A4,16, NOTE_B4,16, NOTE_D5,16, NOTE_B4,16, //45
  
  NOTE_A5,4, NOTE_CS5,8, NOTE_D5,-8, NOTE_CS5,16, NOTE_B4,8, NOTE_A4,16, NOTE_B4,16, NOTE_D5,16, NOTE_B4,16,
  NOTE_D5,4, NOTE_E5,8, NOTE_CS5,-8, NOTE_B4,16, NOTE_A4,4, NOTE_A4,8, 

  NOTE_E5,4, NOTE_D5,2, REST,4
};
  Melody m(114,melody,sizeof(melody)/sizeof(*melody)/2);
  m.play(buzzer,func);
}
